<svg width="19" height="23" viewBox="0 0 19 23" fill="none" xmlns="http://www.w3.org/2000/svg">
<path d="M6.29931 22.9162C2.85175 22.8964 0 15.8588 0 12.2747C0 6.42003 4.39196 5.1383 6.08459 5.1383C6.84738 5.1383 7.66189 5.43785 8.38031 5.70293C8.88268 5.88784 9.40225 6.07872 9.69122 6.07872C9.86418 6.07872 10.2718 5.91634 10.6316 5.77387C11.3991 5.46835 12.3541 5.08862 13.4662 5.08862C13.4681 5.08862 13.4708 5.08862 13.4728 5.08862C14.3031 5.08862 16.8209 5.27086 18.3346 7.54405L18.6892 8.07687L18.1789 8.46194C17.4499 9.012 16.1197 10.0154 16.1197 12.003C16.1197 14.357 17.6262 15.2623 18.3499 15.6977C18.6693 15.8899 19 16.0881 19 16.5215C19 16.8045 16.7414 22.8811 13.4615 22.8811C12.6589 22.8811 12.0916 22.6399 11.5912 22.4272C11.0849 22.2118 10.6482 22.0262 9.92644 22.0262C9.5606 22.0262 9.09799 22.1992 8.60824 22.3828C7.93896 22.6326 7.18141 22.9162 6.32184 22.9162H6.29931Z" fill="white"/>
<path d="M13.8138 0C13.8993 3.07996 11.6966 5.21669 9.49654 5.08268C9.13401 2.62477 11.6963 0 13.8138 0Z" fill="white"/>
</svg>
