<svg width="25" height="25" viewBox="0 0 25 25" fill="none" xmlns="http://www.w3.org/2000/svg">
<path fill-rule="evenodd" clip-rule="evenodd" d="M12.4999 0C5.60761 0 0 5.60761 0 12.4999C0 19.3924 5.60761 25 12.4999 25C19.3924 25 25 19.3924 25 12.4999C25 5.60761 19.3924 0 12.4999 0ZM12.5 22.8579C6.78943 22.8579 2.14315 18.2117 2.14315 12.5004C2.14315 6.78984 6.78943 2.14355 12.5 2.14355C18.2113 2.14355 22.8575 6.78984 22.8575 12.5004C22.8575 18.2117 18.2105 22.8579 12.5 22.8579Z" fill="#FAFAFA"/>
<path fill-rule="evenodd" clip-rule="evenodd" d="M17.3367 7.66391C16.9185 7.24566 16.2396 7.24566 15.8221 7.66391L12.4998 10.9862L9.17839 7.66391C8.75943 7.24566 8.08184 7.24566 7.66305 7.66391C7.2448 8.08287 7.2448 8.76046 7.66305 9.17943L10.9852 12.5008L7.66305 15.8231C7.2448 16.2421 7.2448 16.9195 7.66305 17.3385C7.87253 17.5473 8.1464 17.6524 8.42099 17.6524C8.69486 17.6524 8.96963 17.548 9.17839 17.3385L12.4998 14.0162L15.8221 17.3385C16.0309 17.5473 16.3048 17.6524 16.5793 17.6524C16.8534 17.6524 17.1273 17.548 17.3367 17.3385C17.7557 16.9195 17.7557 16.2421 17.3367 15.8231L14.0153 12.5016L17.3367 9.17943C17.755 8.76046 17.755 8.08287 17.3367 7.66391Z" fill="#FAFAFA"/>
</svg>
