<svg width="38" height="38" viewBox="0 0 38 38" fill="none" xmlns="http://www.w3.org/2000/svg">
<g clip-path="url(#clip0)">
<path d="M31.0538 37.0766C23.0895 37.9267 15.101 37.9267 7.13673 37.0766C3.96102 36.7377 1.45266 34.2293 1.11373 31.0533C0.263686 23.0891 0.263686 15.1009 1.11373 7.13661C1.45266 3.9609 3.96102 1.45254 7.13673 1.1136C15.101 0.263564 23.0892 0.263564 31.0535 1.1136C34.2295 1.45254 36.7378 3.9609 37.0768 7.13661C37.9268 15.1009 37.9268 23.0891 37.0768 31.0533C36.7378 34.2293 34.2298 36.7377 31.0538 37.0766Z" fill="url(#paint0_linear)"/>
<path d="M35.0514 8.4836C34.7508 5.66557 32.5251 3.43962 29.7068 3.13875C22.6394 2.38474 15.551 2.38474 8.48366 3.13875C5.66563 3.43962 3.43968 5.66557 3.13881 8.4836C2.3848 15.551 2.3848 22.6394 3.13881 29.7065C3.43968 32.5248 5.66563 34.7507 8.48366 35.0513C15.551 35.8056 22.6394 35.8056 29.7065 35.0513C32.5248 34.7507 34.7508 32.5248 35.0514 29.7065C35.8057 22.6394 35.8057 15.551 35.0514 8.4836Z" fill="url(#paint1_linear)"/>
<path d="M1.03418 30.2812C1.05975 30.5386 1.08617 30.796 1.11373 31.0534C1.45267 34.2292 3.96102 36.7375 7.13702 37.0765C15.1013 37.9265 23.0895 37.9265 31.0538 37.0765C34.2298 36.7375 36.7378 34.2292 37.0768 31.0534C37.1043 30.796 37.1307 30.5386 37.1566 30.2812H1.03418Z" fill="url(#paint2_linear)"/>
<path d="M25.5112 6.67773C22.2667 6.67773 19.6367 9.30797 19.6367 12.5524V16.9404H16.4752V22.3733L19.6367 25.205V37.7124C23.4443 37.6939 27.2516 37.4823 31.0538 37.0766C34.2298 36.7377 36.7378 34.2293 37.0768 31.0533C37.7092 25.1275 37.8708 19.1885 37.562 13.2559L30.9839 6.67773H25.5112Z" fill="url(#paint3_linear)"/>
<path d="M19.6367 37.7124C21.8064 37.7019 23.9759 37.6283 26.1444 37.4919V22.3733H30.4622L30.9839 16.9404H26.1444V13.4906C26.1444 12.7286 26.7621 12.1109 27.524 12.1109H30.9839V6.67773H25.5112C22.2667 6.67773 19.6367 9.30797 19.6367 12.5524V16.9404H16.4752V22.3733H19.6367V37.7124Z" fill="white"/>
</g>
<defs>
<linearGradient id="paint0_linear" x1="12.84" y1="5.71168" x2="22.2585" y2="25.8631" gradientUnits="userSpaceOnUse">
<stop stop-color="#3457A0"/>
<stop offset="1" stop-color="#3B5998"/>
</linearGradient>
<linearGradient id="paint1_linear" x1="26.1591" y1="23.9487" x2="-6.39308" y2="1.58224" gradientUnits="userSpaceOnUse">
<stop stop-color="#3457A0" stop-opacity="0"/>
<stop offset="1" stop-color="#1F3F77"/>
</linearGradient>
<linearGradient id="paint2_linear" x1="19.0953" y1="31.5954" x2="19.0953" y2="36.6344" gradientUnits="userSpaceOnUse">
<stop stop-color="#3457A0" stop-opacity="0"/>
<stop offset="1" stop-color="#1F3F77"/>
</linearGradient>
<linearGradient id="paint3_linear" x1="43.2257" y1="31.2287" x2="17.3793" y2="18.196" gradientUnits="userSpaceOnUse">
<stop stop-color="#3457A0" stop-opacity="0"/>
<stop offset="0.3251" stop-color="#2A4C8D" stop-opacity="0.32549"/>
<stop offset="0.7045" stop-color="#22427D" stop-opacity="0.705882"/>
<stop offset="1" stop-color="#1F3F77"/>
</linearGradient>
<clipPath id="clip0">
<rect width="37.2381" height="37.2381" fill="white" transform="translate(0.476196 0.476074)"/>
</clipPath>
</defs>
</svg>
