<svg width="40" height="40" viewBox="0 0 40 40" fill="none" xmlns="http://www.w3.org/2000/svg">
<g clip-path="url(#clip0)">
<path d="M32.8441 39.313C24.2894 40.2271 15.7113 40.2271 7.15662 39.313C3.74255 38.9458 1.04724 36.2583 0.687866 32.8442C-0.226196 24.2896 -0.226196 15.7114 0.687866 7.15674C1.05505 3.74268 3.75037 1.04736 7.15662 0.687988C15.7113 -0.226074 24.2894 -0.226074 32.8441 0.687988C36.2582 1.05518 38.9535 3.75049 39.3129 7.15674C40.2269 15.7114 40.2269 24.2896 39.3129 32.8442C38.9535 36.2583 36.2582 38.9536 32.8441 39.313Z" fill="#FFFCF8"/>
<path d="M31.4375 37.2031C23.8203 38.0156 16.1719 38.0156 8.55469 37.2031C5.52344 36.875 3.125 34.4766 2.79688 31.4375C1.98437 23.8203 1.98437 16.1719 2.79688 8.55469C3.125 5.52344 5.52344 3.125 8.5625 2.79688C16.1797 1.98438 23.8281 1.98438 31.4453 2.79688C34.4844 3.125 36.8828 5.52344 37.2109 8.5625C38.0234 16.1797 38.0234 23.8281 37.2109 31.4453C36.875 34.4766 34.4766 36.875 31.4375 37.2031Z" fill="url(#paint0_linear)"/>
<path d="M47 32.2239C46.9762 32.2239 23.8889 12 23.8889 12H20.0079V22.2718L17.5635 20.1174C17.1984 20.0687 16.8254 20.0409 16.4444 20.0409C14.4524 20.0409 12.5873 20.722 11.1825 21.9521C9.77778 23.1822 9 24.8224 9 26.5598C9 28.2973 9.77778 29.9375 11.1825 31.1676L28.2222 46.0888C29.619 47.3189 31.4921 48 33.4762 48C33.8571 48 34.2302 47.9722 34.5952 47.9305C36.1587 47.722 37.6032 47.0896 38.7381 46.0958C40.1349 44.8726 40.9127 43.2463 40.9206 41.5158L40.9286 33.8224C41.6032 34.2811 42.3413 34.6564 43.127 34.9483C44.3571 35.4 45.6587 35.6363 47 35.6363C47 35.6293 47 32.2239 47 32.2239Z" fill="url(#paint1_linear)"/>
<path d="M32.8441 39.313C24.2894 40.2271 15.7113 40.2271 7.15662 39.313C3.74255 38.9458 1.04724 36.2583 0.687866 32.8442C-0.226196 24.2896 -0.226196 15.7114 0.687866 7.15674C1.05505 3.74268 3.75037 1.04736 7.15662 0.687988C15.7113 -0.226074 24.2894 -0.226074 32.8441 0.687988C36.2582 1.05518 38.9535 3.75049 39.3129 7.15674C40.2269 15.7114 40.2269 24.2896 39.3129 32.8442C38.9535 36.2583 36.2582 38.9536 32.8441 39.313Z" fill="url(#paint2_linear)"/>
<path d="M27.375 11.75H11.625V28.25H27.375V11.75Z" fill="#ECEFF1"/>
<path d="M19.5 21.7352L27.375 28.2499V15.3882L19.5 21.7352Z" fill="#CFD8DC"/>
<path d="M28.0312 11.75H27.375L19.5 18.2648L11.625 11.75H10.9688C9.882 11.75 9 12.674 9 13.8125V26.1875C9 27.326 9.882 28.25 10.9688 28.25H11.625V15.3882L19.5 21.7339L27.375 15.3869V28.25H28.0312C29.118 28.25 30 27.326 30 26.1875V13.8125C30 12.674 29.118 11.75 28.0312 11.75Z" fill="#F44336"/>
</g>
<defs>
<linearGradient id="paint0_linear" x1="4.66078" y1="4.66094" x2="35.3391" y2="35.3393" gradientUnits="userSpaceOnUse">
<stop stop-color="#E8EBEE"/>
<stop offset="1" stop-color="#E8EBEE" stop-opacity="0"/>
</linearGradient>
<linearGradient id="paint1_linear" x1="13.298" y1="17.8708" x2="38.3278" y2="46.4543" gradientUnits="userSpaceOnUse">
<stop stop-color="#B7C1CE"/>
<stop offset="1" stop-color="#B8C1CF" stop-opacity="0"/>
</linearGradient>
<linearGradient id="paint2_linear" x1="20.0008" y1="32.5066" x2="20.0008" y2="39.2645" gradientUnits="userSpaceOnUse">
<stop stop-color="#94A1B2" stop-opacity="0"/>
<stop offset="1" stop-color="#94A1B2"/>
</linearGradient>
<clipPath id="clip0">
<rect width="40" height="40" fill="white"/>
</clipPath>
</defs>
</svg>
