<svg width="21" height="21" viewBox="0 0 21 21" fill="none" xmlns="http://www.w3.org/2000/svg">
<g clip-path="url(#clip0)">
<path d="M4.58356 0.335847C3.76198 -0.118252 2.79735 -0.107753 1.98102 0.342409L11.5486 9.16847L14.7627 5.95434L4.58356 0.335847Z" fill="#00EF77"/>
<path d="M1.02428 1.24536C0.790667 1.62728 0.656799 2.06432 0.656799 2.5276V18.4683C0.656799 18.9172 0.778855 19.345 0.999342 19.7191L10.6207 10.0977L1.02428 1.24536Z" fill="#00CEFF"/>
<path d="M19.0242 8.30622L15.9584 6.6145L12.5132 10.0583L16.7353 13.9523L19.0255 12.6884C19.8497 12.2317 20.3432 11.4127 20.3432 10.4967C20.3419 9.58059 19.8497 8.76163 19.0242 8.30622Z" fill="#FFCA01"/>
<path d="M11.5854 10.9875L1.93774 20.6352C2.35641 20.8741 2.81576 21 3.27773 21C3.72396 21 4.17281 20.8872 4.58359 20.6601L15.5253 14.6217L11.5854 10.9875Z" fill="#FB3745"/>
</g>
<defs>
<clipPath id="clip0">
<rect width="21" height="21" fill="white"/>
</clipPath>
</defs>
</svg>
