<svg width="35" height="35" viewBox="0 0 35 35" fill="none" xmlns="http://www.w3.org/2000/svg">
<g clip-path="url(#clip0)">
<path d="M2.18751 2.38176C-0.562911 5.23864 5.73695e-06 8.27343 5.73695e-06 17.493C5.73695e-06 25.1493 -1.33583 32.8245 5.65542 34.6313C7.83855 35.1928 27.1819 35.1928 29.3621 34.6284C32.2729 33.8774 34.6413 31.5163 34.965 27.3995C35.0102 26.8249 35.0102 8.17134 34.9635 7.58509C34.6194 3.19989 31.92 0.672593 28.3631 0.160718C27.5479 0.0425933 27.3846 0.0075933 23.2021 0.000301629C8.36646 0.0075933 5.11438 -0.653032 2.18751 2.38176Z" fill="url(#paint0_linear)"/>
<path d="M17.4971 4.5779C12.2019 4.5779 7.17356 4.10686 5.25293 9.03603C4.4596 11.0719 4.57481 13.7158 4.57481 17.5017C4.57481 20.8237 4.46835 23.946 5.25293 25.9658C7.16918 30.8979 12.2383 30.4254 17.4942 30.4254C22.5648 30.4254 27.7929 30.9533 29.7369 25.9658C30.5317 23.9096 30.415 21.305 30.415 17.5017C30.415 12.4529 30.6936 9.19353 28.245 6.74644C25.7658 4.26728 22.4131 4.5779 17.4913 4.5779H17.4971ZM16.3392 6.90686C27.3846 6.88936 28.7904 5.66145 28.0146 22.7196C27.739 28.7527 23.1452 28.0906 17.4986 28.0906C7.20272 28.0906 6.90668 27.796 6.90668 17.4958C6.90668 7.07603 7.72335 6.91269 16.3392 6.90394V6.90686ZM24.395 9.05207C23.539 9.05207 22.8448 9.74623 22.8448 10.6023C22.8448 11.4583 23.539 12.1525 24.395 12.1525C25.2511 12.1525 25.9452 11.4583 25.9452 10.6023C25.9452 9.74623 25.2511 9.05207 24.395 9.05207ZM17.4971 10.8648C13.8323 10.8648 10.8617 13.8369 10.8617 17.5017C10.8617 21.1664 13.8323 24.1371 17.4971 24.1371C21.1619 24.1371 24.1311 21.1664 24.1311 17.5017C24.1311 13.8369 21.1619 10.8648 17.4971 10.8648ZM17.4971 13.1937C23.1919 13.1937 23.1992 21.8096 17.4971 21.8096C11.8038 21.8096 11.795 13.1937 17.4971 13.1937Z" fill="white"/>
</g>
<defs>
<linearGradient id="paint0_linear" x1="2.25462" y1="32.7648" x2="34.7834" y2="4.61152" gradientUnits="userSpaceOnUse">
<stop stop-color="#FFDD55"/>
<stop offset="0.5" stop-color="#FF543E"/>
<stop offset="1" stop-color="#C837AB"/>
</linearGradient>
<clipPath id="clip0">
<rect width="35" height="35" fill="white"/>
</clipPath>
</defs>
</svg>
