<svg width="52" height="52" viewBox="0 0 52 52" fill="none" xmlns="http://www.w3.org/2000/svg">
<path d="M42.6991 51.1097C31.5776 52.2968 20.4224 52.2968 9.3009 51.1097C4.86627 50.6364 1.36356 47.1337 0.890259 42.6987C-0.296753 31.5772 -0.296753 20.4224 0.890259 9.3009C1.36356 4.86627 4.86627 1.36356 9.3009 0.890259C20.4224 -0.296753 31.5772 -0.296753 42.6987 0.890259C47.1337 1.36356 50.6364 4.86627 51.1097 9.3009C52.2968 20.4224 52.2968 31.5772 51.1097 42.6987C50.6364 47.1337 47.1341 50.6364 42.6991 51.1097Z" fill="url(#paint0_linear)"/>
<path d="M48.2815 11.1821C47.8617 7.2469 44.7538 4.13853 40.8182 3.7184C30.9492 2.66548 21.0508 2.66548 11.1818 3.7184C7.24666 4.13853 4.13829 7.2469 3.71815 11.1821C2.66524 21.0511 2.66524 30.9494 3.71815 40.8181C4.13829 44.7536 7.24666 47.862 11.1818 48.2817C21.0508 49.335 30.9492 49.335 40.8178 48.2817C44.7534 47.862 47.8617 44.7536 48.2815 40.8181C49.3348 30.9494 49.3348 21.0511 48.2815 11.1821Z" fill="url(#paint1_linear)"/>
<path d="M0.779175 41.6206C0.81488 41.98 0.851776 42.3395 0.890259 42.6989C1.36356 47.1335 4.86627 50.6363 9.3013 51.1096C20.4228 52.2966 31.5776 52.2966 42.6991 51.1096C47.1341 50.6363 50.6364 47.1335 51.1097 42.6989C51.1482 42.3395 51.1851 41.98 51.2212 41.6206H0.779175Z" fill="url(#paint2_linear)"/>
<path d="M50.5491 45.0502L16.9922 11.4929C16.2428 10.515 15.0638 9.88379 13.7367 9.88379C11.473 9.88379 9.6377 11.7187 9.6377 13.9824C9.6377 15.3098 10.2693 16.4889 11.2472 17.2379L44.6875 50.6786C47.3904 49.7792 49.5446 47.7023 50.5491 45.0502Z" fill="url(#paint3_linear)"/>
<path d="M17.1795 20.7695H10.2935V42.1159L20.0641 51.8865C27.6107 52.1722 35.1624 51.9139 42.6986 51.1093C44.0162 50.9689 45.2504 50.5591 46.3485 49.9386L17.1795 20.7695Z" fill="url(#paint4_linear)"/>
<path d="M40.5651 22.558C39.3055 21.177 37.492 20.3105 35.4762 20.3105C32.2877 20.3105 30.2299 21.4305 29.0052 22.4703L27.6559 20.77H21.311V42.1163L31.111 51.9163C34.976 51.7906 38.8393 51.5216 42.6991 51.1098C47.1341 50.6365 50.6364 47.1338 51.1097 42.6991C51.4263 39.734 51.6576 36.7664 51.8052 33.7981L40.5651 22.558Z" fill="url(#paint5_linear)"/>
<path d="M10.2939 20.77H17.1796V42.1164H10.2939V20.77Z" fill="white"/>
<path d="M35.4762 20.3105C30.4302 20.3105 28.2137 23.115 27.6559 23.9688V20.77H21.311V42.1163H28.1971V31.394C28.1971 28.2955 29.6233 25.8854 32.3286 25.8854C35.0335 25.8854 35.4762 28.8854 35.4762 32.5746V42.1163H42.3622V27.1966C42.3622 23.3935 39.2793 20.3105 35.4762 20.3105Z" fill="white"/>
<path d="M17.8353 13.9828C17.8353 16.2465 16.0004 18.0814 13.7367 18.0814C11.473 18.0814 9.6377 16.2465 9.6377 13.9828C9.6377 11.7191 11.473 9.88379 13.7367 9.88379C16.0004 9.88379 17.8353 11.7191 17.8353 13.9828Z" fill="white"/>
<defs>
<linearGradient id="paint0_linear" x1="17.265" y1="7.3111" x2="30.4173" y2="35.4509" gradientUnits="userSpaceOnUse">
<stop stop-color="#0077B5"/>
<stop offset="1" stop-color="#0066B2"/>
</linearGradient>
<linearGradient id="paint1_linear" x1="36.9975" y1="31.8997" x2="-38.5517" y2="-8.6277" gradientUnits="userSpaceOnUse">
<stop stop-color="#0066B2" stop-opacity="0"/>
<stop offset="1" stop-color="#07485E"/>
</linearGradient>
<linearGradient id="paint2_linear" x1="26" y1="42.2322" x2="26" y2="53.1002" gradientUnits="userSpaceOnUse">
<stop stop-color="#0066B2" stop-opacity="0"/>
<stop offset="1" stop-color="#07485E"/>
</linearGradient>
<linearGradient id="paint3_linear" x1="27.5594" y1="27.8054" x2="8.11653" y2="8.36255" gradientUnits="userSpaceOnUse">
<stop stop-color="#0066B2" stop-opacity="0"/>
<stop offset="1" stop-color="#07485E"/>
</linearGradient>
<linearGradient id="paint4_linear" x1="38.9745" y1="45.8684" x2="-0.178463" y2="27.5154" gradientUnits="userSpaceOnUse">
<stop stop-color="#0066B2" stop-opacity="0"/>
<stop offset="1" stop-color="#07485E"/>
</linearGradient>
<linearGradient id="paint5_linear" x1="48.4992" y1="49.8931" x2="21.2235" y2="22.6173" gradientUnits="userSpaceOnUse">
<stop stop-color="#0066B2" stop-opacity="0"/>
<stop offset="1" stop-color="#07485E"/>
</linearGradient>
</defs>
</svg>
