<svg width="50" height="50" viewBox="0 0 50 50" fill="none" xmlns="http://www.w3.org/2000/svg">
<g clip-path="url(#clip0)">
<path d="M41.0568 49.144C30.3631 50.2853 19.6369 50.2853 8.94318 49.144C4.67911 48.6889 1.31111 45.3209 0.856018 41.0564C-0.285339 30.3627 -0.285339 19.6369 0.856018 8.94318C1.31111 4.67911 4.67911 1.31111 8.94318 0.856018C19.6369 -0.285339 30.3627 -0.285339 41.0564 0.856018C45.3209 1.31111 48.6889 4.67911 49.144 8.94318C50.2853 19.6369 50.2853 30.3627 49.144 41.0564C48.6889 45.3209 45.3213 48.6889 41.0568 49.144Z" fill="url(#paint0_linear)"/>
<path d="M46.4245 10.7518C46.0209 6.96803 43.0324 3.97921 39.2483 3.57523C29.7588 2.56281 20.2411 2.56281 10.7517 3.57523C6.9679 3.97921 3.97909 6.96803 3.57511 10.7518C2.56269 20.2413 2.56269 29.7589 3.57511 39.248C3.97909 43.0322 6.9679 46.021 10.7517 46.4246C20.2411 47.4374 29.7588 47.4374 39.2479 46.4246C43.0321 46.021 46.0209 43.0322 46.4245 39.248C47.4373 29.7589 47.4373 20.2413 46.4245 10.7518Z" fill="url(#paint1_linear)"/>
<path d="M0.749268 40.02C0.7836 40.3656 0.819077 40.7112 0.856079 41.0569C1.31117 45.3209 4.67917 48.6889 8.94362 49.144C19.6374 50.2854 30.3631 50.2854 41.0569 49.144C45.3213 48.6889 48.6889 45.3209 49.144 41.0569C49.181 40.7112 49.2165 40.3656 49.2512 40.02H0.749268Z" fill="url(#paint2_linear)"/>
<path d="M49.144 41.0563C49.6162 36.6313 49.8924 32.2009 49.974 27.7693L36.5578 14.353C33.7383 11.3802 29.6059 9.50342 25 9.50342C16.5039 9.50342 9.61646 15.8877 9.61646 23.7628C9.61646 27.6385 11.2861 31.1518 13.9934 33.7218C14.1716 33.9099 15.2626 34.9978 15.3484 35.0836L15.4068 39.8203C15.4121 40.2537 15.5868 40.668 15.8932 40.9743L24.9184 49.9995C30.3005 50.0025 35.6827 49.7172 41.0564 49.1438C45.3213 48.6888 48.6889 45.3208 49.144 41.0563Z" fill="url(#paint3_linear)"/>
<path d="M25 9.50342C16.5039 9.50342 9.61646 15.8877 9.61646 23.7628C9.61646 28.2488 11.8519 32.2501 15.3457 34.8639L15.4079 39.8917C15.411 40.1633 15.7047 40.3319 15.9412 40.1976L20.7455 37.4693C22.0966 37.8291 23.5241 38.0221 25 38.0221C33.4961 38.0221 40.3835 31.6378 40.3835 23.7628C40.3835 15.8877 33.4961 9.50342 25 9.50342ZM26.168 28.3587L22.8798 24.9362C22.6871 24.7355 22.3842 24.6878 22.1393 24.8198L16.3692 27.9269C16.1495 28.0451 15.934 27.764 16.1049 27.5824L22.9233 20.3547C23.119 20.1476 23.4485 20.1476 23.6439 20.3551L26.931 23.8432C27.124 24.0485 27.4307 24.0973 27.6783 23.9626L33.3485 20.8754C33.5682 20.756 33.7849 21.0375 33.6136 21.2195L26.8856 28.3553C26.6914 28.5613 26.3645 28.5628 26.168 28.3587Z" fill="white"/>
</g>
<defs>
<linearGradient id="paint0_linear" x1="16.601" y1="7.02991" x2="29.2474" y2="34.0874" gradientUnits="userSpaceOnUse">
<stop stop-color="#0082FF"/>
<stop offset="1" stop-color="#0078DB"/>
</linearGradient>
<linearGradient id="paint1_linear" x1="35.5744" y1="30.6726" x2="-37.069" y2="-8.29601" gradientUnits="userSpaceOnUse">
<stop stop-color="#0078DB" stop-opacity="0"/>
<stop offset="1" stop-color="#006CB5"/>
</linearGradient>
<linearGradient id="paint2_linear" x1="25.0001" y1="43.3334" x2="25.0001" y2="48.4352" gradientUnits="userSpaceOnUse">
<stop stop-color="#0078DB" stop-opacity="0"/>
<stop offset="1" stop-color="#006CB5"/>
</linearGradient>
<linearGradient id="paint3_linear" x1="43.685" y1="45.1196" x2="29.1202" y2="30.5548" gradientUnits="userSpaceOnUse">
<stop stop-color="#0078DB" stop-opacity="0"/>
<stop offset="1" stop-color="#006CB5"/>
</linearGradient>
<clipPath id="clip0">
<rect width="50" height="50" fill="white"/>
</clipPath>
</defs>
</svg>
