<svg width="41" height="41" viewBox="0 0 41 41" fill="none" xmlns="http://www.w3.org/2000/svg">
<path d="M33.6666 40.2981C24.8977 41.234 16.1023 41.234 7.3334 40.2981C3.83687 39.9249 1.07511 37.1631 0.701935 33.6663C-0.233978 24.8974 -0.233978 16.1023 0.701935 7.3334C1.07511 3.83687 3.83687 1.07511 7.3334 0.701935C16.1023 -0.233978 24.8974 -0.233978 33.6663 0.701935C37.1631 1.07511 39.9249 3.83687 40.2981 7.3334C41.234 16.1023 41.234 24.8974 40.2981 33.6663C39.9249 37.1631 37.1634 39.9249 33.6666 40.2981Z" fill="url(#paint0_linear)"/>
<path d="M38.0681 8.81652C37.7371 5.71381 35.2866 3.26298 32.1836 2.93172C24.4022 2.10154 16.5977 2.10154 8.8164 2.93172C5.71369 3.26298 3.26286 5.71381 2.9316 8.81652C2.10141 16.5979 2.10141 24.4024 2.9316 32.1834C3.26286 35.2864 5.71369 37.7372 8.8164 38.0682C16.5977 38.8987 24.4022 38.8987 32.1833 38.0682C35.2863 37.7372 37.7371 35.2864 38.0681 32.1834C38.8986 24.4024 38.8986 16.5979 38.0681 8.81652Z" fill="url(#paint1_linear)"/>
<path d="M0.614349 32.8164C0.642502 33.0998 0.671593 33.3832 0.701935 33.6666C1.07511 37.1631 3.83687 39.9249 7.33372 40.2981C16.1026 41.234 24.8977 41.234 33.6666 40.2981C37.1634 39.9249 39.9249 37.1631 40.2981 33.6666C40.3284 33.3832 40.3575 33.0998 40.386 32.8164H0.614349Z" fill="url(#paint2_linear)"/>
<path d="M21.3364 25.9165C20.0845 25.8197 19.5584 25.1988 18.5766 24.6028C18.0369 27.4341 17.3774 30.1483 15.4241 31.5661C14.8204 27.2868 16.3091 24.0726 17.0005 20.661C15.822 18.6772 17.1422 14.6842 19.6278 15.6682C22.687 16.8779 16.9792 23.0444 20.811 23.8146C24.8113 24.6188 26.4444 16.8735 23.9635 14.3542C20.3791 10.717 13.53 14.2715 14.3723 19.4784C14.5774 20.7513 15.8929 21.1377 14.8977 22.8942C12.6037 22.3861 11.9194 20.5768 12.0074 18.1647C12.1494 14.2163 15.5551 11.4517 18.9713 11.0692C23.2916 10.5856 27.3465 12.6556 27.9062 16.7194C28.5359 21.306 25.9558 26.2731 21.3364 25.9165Z" fill="#F1F2F2"/>
<defs>
<linearGradient id="paint0_linear" x1="13.6128" y1="5.76452" x2="23.9829" y2="27.9517" gradientUnits="userSpaceOnUse">
<stop stop-color="#CB2027"/>
<stop offset="1" stop-color="#B7171D"/>
</linearGradient>
<linearGradient id="paint1_linear" x1="29.171" y1="25.1516" x2="-30.3966" y2="-6.8027" gradientUnits="userSpaceOnUse">
<stop stop-color="#CB2027"/>
<stop offset="1" stop-color="#CB2027"/>
</linearGradient>
<linearGradient id="paint2_linear" x1="20.5" y1="35.0248" x2="20.5" y2="40.3972" gradientUnits="userSpaceOnUse">
<stop stop-color="#CB2027"/>
<stop offset="1" stop-color="#CB2027"/>
</linearGradient>
</defs>
</svg>
