<svg width="55" height="55" viewBox="0 0 55 55" fill="none" xmlns="http://www.w3.org/2000/svg">
<path d="M45.1625 54.0584C33.3994 55.3139 21.6006 55.3139 9.83749 54.0584C5.14702 53.5578 1.44222 49.853 0.94162 45.1621C-0.313873 33.399 -0.313873 21.6006 0.94162 9.83749C1.44222 5.14702 5.14702 1.44222 9.83749 0.94162C21.6006 -0.313873 33.399 -0.313873 45.1621 0.94162C49.853 1.44222 53.5578 5.14702 54.0584 9.83749C55.3139 21.6006 55.3139 33.399 54.0584 45.1621C53.5578 49.853 49.8534 53.5578 45.1625 54.0584Z" fill="url(#paint0_linear)"/>
<path d="M51.0669 11.8267C50.623 7.66449 47.3357 4.37679 43.1731 3.93241C32.7347 2.81875 22.2653 2.81875 11.8269 3.93241C7.66473 4.37679 4.37703 7.66449 3.93266 11.8267C2.819 22.2651 2.819 32.7345 3.93266 43.1725C4.37703 47.3351 7.66473 50.6227 11.8269 51.0667C22.2653 52.1808 32.7347 52.1808 43.1727 51.0667C47.3353 50.6227 50.623 47.3351 51.0669 43.1725C52.181 32.7345 52.181 22.2651 51.0669 11.8267Z" fill="url(#paint1_linear)"/>
<path d="M0.824097 44.022C0.861862 44.4021 0.900887 44.7823 0.941589 45.1625C1.44219 49.853 5.14699 53.5578 9.83788 54.0584C21.601 55.3139 33.3994 55.3139 45.1625 54.0584C49.8534 53.5578 53.5577 49.853 54.0583 45.1625C54.0991 44.7823 54.1381 44.4021 54.1763 44.022H0.824097Z" fill="url(#paint2_linear)"/>
<path d="M54.0584 45.1623C54.4784 41.228 54.7571 37.2898 54.896 33.3501L35.0817 13.5358C32.5107 10.7189 29.0455 10.4541 27.8508 10.4541H27.8491C27.8181 10.4541 27.7887 10.4541 27.7606 10.4545C27.7606 10.4545 27.1794 10.4604 27.1333 10.4604C25.6369 10.4604 20.5659 10.8771 18.1732 16.241C17.3688 18.0458 17.5614 21.1107 17.7162 23.5734C17.7343 23.8638 17.754 24.1655 17.7704 24.4567C17.6466 24.5251 17.4204 24.6107 17.0646 24.6107C16.5896 24.6107 16.0285 24.4605 15.3966 24.1647C15.2288 24.0858 15.0353 24.0467 14.8217 24.0467C14.0815 24.0467 13.1966 24.5335 13.0585 25.259C12.9859 25.6404 13.0916 26.1494 13.8058 26.6542C13.925 26.8435 16.9718 29.8979 17.1938 30.0691C16.8577 30.8017 14.6174 35.3017 9.99404 36.0633C9.6147 36.1258 9.34405 36.4636 9.36503 36.8472C9.37133 36.9613 9.3986 37.075 9.44518 37.1849C9.55512 37.4417 9.77038 37.6776 10.0922 37.8949L27.1966 54.9989C33.1879 55.0098 39.1796 54.6972 45.1621 54.0586C49.8534 53.558 53.5578 49.8532 54.0584 45.1623Z" fill="url(#paint3_linear)"/>
<path d="M27.7245 44.1702C27.633 44.1702 27.5428 44.1677 27.453 44.1631H27.4526C27.3955 44.1677 27.3355 44.1702 27.2755 44.1702C25.1711 44.1702 23.8208 43.2156 22.5145 42.292C21.6128 41.6551 20.7618 41.0533 19.7593 40.8863C19.27 40.8053 18.7829 40.7642 18.3121 40.7642C17.4644 40.7642 16.7956 40.8951 16.3071 40.9908C16.0105 41.0487 15.7541 41.0986 15.5598 41.0986C15.3567 41.0986 15.1364 41.0546 15.0407 40.7277C14.9572 40.444 14.8972 40.1696 14.8393 39.9044C14.6903 39.2209 14.5842 38.8008 14.298 38.7568C10.9604 38.2415 10.0053 37.5382 9.79216 37.0397C9.76195 36.9684 9.74475 36.897 9.74097 36.8261C9.73006 36.6343 9.8656 36.4652 10.0553 36.4342C15.1855 35.5895 17.4863 30.346 17.5819 30.1231C17.5844 30.1169 17.5874 30.111 17.5899 30.1047C17.9042 29.4685 17.9655 28.9159 17.7733 28.4636C17.4212 27.6336 16.2731 27.2689 15.5128 27.0276C15.3269 26.9689 15.1507 26.9131 15.0114 26.8585C13.4949 26.2589 13.3686 25.6433 13.4281 25.3294C13.5297 24.7949 14.2443 24.4222 14.8217 24.4222C14.9803 24.4222 15.1196 24.4503 15.2371 24.5053C15.9194 24.8251 16.5341 24.987 17.065 24.987C17.798 24.987 18.1178 24.6786 18.1572 24.6383C18.1383 24.2909 18.1153 23.9283 18.0918 23.554C17.939 21.1287 17.7494 18.1146 18.5168 16.3941C20.8168 11.237 25.6944 10.8367 27.1341 10.8367C27.171 10.8367 27.7656 10.83 27.7656 10.83L27.8508 10.8296C29.2943 10.8296 34.1824 11.2312 36.4836 16.3908C37.251 18.1125 37.0614 21.1287 36.9082 23.5524L36.9019 23.6577C36.8805 23.9955 36.86 24.3236 36.8428 24.6375C36.8797 24.6748 37.1738 24.9585 37.8385 24.9837H37.8393C38.3446 24.9644 38.9249 24.8032 39.5619 24.5049C39.749 24.418 39.9563 24.3996 40.0973 24.3996C40.313 24.3996 40.5316 24.4411 40.7129 24.5171L40.7238 24.5213C41.2391 24.7042 41.5769 25.0651 41.584 25.4427C41.5907 25.7977 41.3196 26.3323 39.9886 26.8581C39.8506 26.9122 39.6743 26.968 39.4876 27.0276C38.7268 27.2689 37.5788 27.6331 37.2271 28.4627C37.0345 28.9155 37.0962 29.4673 37.4101 30.1043C37.413 30.1101 37.4159 30.116 37.4185 30.1227C37.5141 30.3451 39.8128 35.5874 44.9456 36.4333C45.1348 36.4644 45.2703 36.6335 45.2598 36.8253C45.2556 36.8974 45.238 36.9696 45.2074 37.0401C44.9959 37.5353 44.0413 38.2373 40.7024 38.7534C40.4301 38.7949 40.3243 39.1504 40.1615 39.896C40.1019 40.1671 40.0423 40.4335 39.9597 40.7139C39.8888 40.9568 39.7373 41.0705 39.4821 41.0705H39.4406C39.2639 41.0705 39.0122 41.0391 38.6937 40.9761C38.1285 40.8658 37.4944 40.7638 36.6883 40.7638C36.2175 40.7638 35.7304 40.8049 35.2407 40.8859C34.239 41.0529 33.3885 41.6534 32.4884 42.2899C31.18 43.2156 29.8293 44.1702 27.7245 44.1702Z" fill="white"/>
<path d="M27.8508 11.2061C29.2171 11.2065 33.9227 11.5728 36.1404 16.5444C36.8701 18.1809 36.6833 21.1468 36.5331 23.5294C36.5092 23.907 36.4861 24.2729 36.4677 24.6233L36.4593 24.7735L36.56 24.8856C36.6003 24.9309 36.98 25.3274 37.8239 25.3601L37.8381 25.3606L37.852 25.3601C38.4101 25.3392 39.0386 25.1659 39.7218 24.8457C39.8221 24.7987 39.9559 24.776 40.0973 24.776C40.2589 24.776 40.4301 24.8063 40.5715 24.8658L40.5929 24.8742C40.9508 24.9997 41.2039 25.2364 41.2085 25.4504C41.2102 25.5721 41.1195 26.0072 39.8506 26.5086C39.7264 26.5577 39.5632 26.6093 39.3739 26.6693C38.5485 26.9316 37.301 27.3273 36.881 28.3159C36.6443 28.8744 36.7085 29.532 37.0727 30.2709C37.223 30.6209 39.5795 35.9311 44.8843 36.8052C44.8826 36.8295 44.8768 36.8576 44.8625 36.89C44.7723 37.1019 44.2008 37.8328 40.6454 38.3817C40.0885 38.4677 39.9522 39.0908 39.794 39.8159C39.7373 40.0753 39.679 40.3371 39.5988 40.6082C39.5749 40.69 39.5703 40.695 39.4822 40.695C39.47 40.695 39.4566 40.695 39.4406 40.695C39.2829 40.695 39.0433 40.6623 38.7655 40.6078C38.2615 40.5091 37.5704 40.3883 36.6884 40.3883C36.1957 40.3883 35.688 40.4311 35.1794 40.5154C34.0914 40.6967 33.206 41.3228 32.2686 41.9849C31.0101 42.8749 29.7093 43.7943 27.7245 43.7943C27.6381 43.7943 27.5533 43.7918 27.4686 43.7876L27.4463 43.7864L27.4237 43.7885C27.375 43.7926 27.3259 43.7943 27.2755 43.7943C25.2912 43.7943 23.9895 42.8749 22.7315 41.9854C21.7945 41.3228 20.9087 40.6967 19.821 40.5154C19.312 40.4311 18.8047 40.3883 18.3121 40.3883C17.4301 40.3883 16.739 40.523 16.2346 40.6216C15.9572 40.6762 15.7172 40.7223 15.5598 40.7223C15.431 40.7223 15.4285 40.7152 15.4012 40.622C15.3215 40.351 15.2632 40.0824 15.2065 39.8235C15.0483 39.098 14.9111 38.4711 14.3551 38.385C10.7993 37.8362 10.2282 37.1031 10.138 36.8916C10.1237 36.8589 10.1178 36.8304 10.1166 36.8056C15.4209 35.9315 17.7775 30.6221 17.9273 30.2713C18.292 29.5316 18.3566 28.8744 18.1199 28.3168C17.7003 27.3273 16.4524 26.9316 15.6266 26.6689C15.4373 26.6093 15.2741 26.5577 15.1499 26.5082C14.0777 26.0848 13.7483 25.6585 13.7979 25.4C13.8545 25.1017 14.3711 24.7987 14.8221 24.7987C14.9237 24.7987 15.0122 24.8151 15.0777 24.8457C15.8103 25.1885 16.4792 25.3631 17.065 25.3631C17.9869 25.3631 18.3977 24.9338 18.4413 24.8851L18.5412 24.7735L18.5328 24.6237C18.5144 24.2742 18.4913 23.9083 18.4674 23.5306C18.3171 21.148 18.1308 18.1847 18.8605 16.5474C21.0694 11.5942 25.7519 11.2123 27.1345 11.2123C27.1685 11.2123 27.7694 11.2065 27.7694 11.2065C27.795 11.2065 27.8219 11.2061 27.8508 11.2061ZM27.8508 10.4541H27.8491C27.8181 10.4541 27.7887 10.4541 27.7606 10.4545C27.7606 10.4545 27.1794 10.4604 27.1333 10.4604C25.6369 10.4604 20.5659 10.8771 18.1732 16.2415C17.3688 18.0458 17.5614 21.1107 17.7162 23.5734C17.7343 23.8642 17.754 24.1655 17.7704 24.4567C17.6466 24.5255 17.4204 24.6107 17.0646 24.6107C16.5896 24.6107 16.0285 24.4609 15.3966 24.1647C15.2288 24.0862 15.0353 24.0467 14.8217 24.0467C14.0815 24.0467 13.1966 24.5335 13.0585 25.2594C12.959 25.7819 13.1932 26.5443 14.8729 27.2077C15.0248 27.2677 15.2069 27.3256 15.3995 27.3865C16.0936 27.6068 17.1426 27.9395 17.4271 28.6101C17.5744 28.9575 17.5157 29.4048 17.2526 29.9386C17.2471 29.9508 17.2412 29.9629 17.2358 29.9751C17.1435 30.1899 14.9233 35.2514 9.99404 36.0629C9.6147 36.1254 9.34405 36.4636 9.36503 36.8472C9.37133 36.9613 9.3986 37.075 9.44518 37.1849C9.81486 38.0498 11.3758 38.6838 14.2175 39.1248C14.3123 39.2532 14.4109 39.7068 14.4718 39.9834C14.5309 40.2561 14.5922 40.5373 14.6795 40.8344C14.7651 41.126 14.9875 41.4747 15.5594 41.4747C15.7906 41.4747 16.0634 41.4214 16.3789 41.3593C16.8523 41.267 17.5006 41.1403 18.3121 41.1403C18.7619 41.1403 19.2285 41.1793 19.6981 41.2573C20.615 41.4101 21.3942 41.9606 22.2964 42.5984C23.5884 43.5119 25.0516 44.5463 27.2755 44.5463C27.3364 44.5463 27.3981 44.5442 27.4585 44.5396C27.5311 44.5429 27.6247 44.5463 27.7241 44.5463C29.9489 44.5463 31.4117 43.5119 32.7029 42.5988C33.6071 41.9602 34.3855 41.4096 35.3024 41.2573C35.7715 41.1793 36.2381 41.1403 36.6884 41.1403C37.4626 41.1403 38.0748 41.2389 38.6215 41.3454C38.964 41.4126 39.2392 41.4466 39.4406 41.4466L39.4616 41.447H39.4822C39.9043 41.447 40.2027 41.2238 40.3206 40.8184C40.4066 40.528 40.4679 40.254 40.5283 39.9767C40.5887 39.701 40.6869 39.249 40.7817 39.1215C43.6238 38.68 45.1844 38.0473 45.5536 37.1862C45.601 37.0758 45.6283 36.9613 45.635 36.8463C45.6564 36.4628 45.3853 36.125 45.0064 36.0625C40.0747 35.2497 37.8562 30.1895 37.7639 29.9747C37.7588 29.9625 37.7534 29.9503 37.7471 29.9382C37.484 29.4044 37.4256 28.9575 37.5729 28.6101C37.8574 27.9395 38.906 27.6064 39.6001 27.3865C39.794 27.3248 39.9765 27.2669 40.1267 27.2077C41.3562 26.7222 41.973 26.1255 41.96 25.4353C41.9495 24.8927 41.527 24.4089 40.8556 24.1693L40.8535 24.1684C40.6277 24.0749 40.3596 24.0237 40.0969 24.0237C39.9177 24.0237 39.6513 24.048 39.4029 24.1642C38.8179 24.4382 38.2921 24.5872 37.8394 24.6078C37.5389 24.5935 37.3421 24.518 37.2301 24.4563C37.2439 24.2062 37.2603 23.949 37.2771 23.68L37.2834 23.5755C37.4391 21.1111 37.6321 18.0437 36.8268 16.2377C34.4334 10.8716 29.3514 10.4541 27.8508 10.4541Z" fill="#030303"/>
<defs>
<linearGradient id="paint0_linear" x1="18.2611" y1="7.7329" x2="32.1721" y2="37.4961" gradientUnits="userSpaceOnUse">
<stop stop-color="#FFFC00"/>
<stop offset="1" stop-color="#FFE600"/>
</linearGradient>
<linearGradient id="paint1_linear" x1="39.1319" y1="33.7396" x2="-40.7759" y2="-9.12596" gradientUnits="userSpaceOnUse">
<stop stop-color="#FFE600" stop-opacity="0"/>
<stop offset="1" stop-color="#FFCE00"/>
</linearGradient>
<linearGradient id="paint2_linear" x1="27.5" y1="46.9845" x2="27.5" y2="54.1913" gradientUnits="userSpaceOnUse">
<stop stop-color="#FFE600" stop-opacity="0"/>
<stop offset="1" stop-color="#FFCE00"/>
</linearGradient>
<linearGradient id="paint3_linear" x1="41.3134" y1="51.6202" x2="30.6374" y2="32.5329" gradientUnits="userSpaceOnUse">
<stop stop-color="#FFE600" stop-opacity="0"/>
<stop offset="1" stop-color="#FFCE00"/>
</linearGradient>
</defs>
</svg>
