<svg width="1399" height="259" viewBox="0 0 1399 259" fill="none" xmlns="http://www.w3.org/2000/svg">
<g opacity="0.2">
<path opacity="0.2" d="M778.376 207.676C774.221 207.676 770.197 207.559 766.172 207.21C737.607 205 716.184 195.345 700.474 188.249C693.592 185.109 687.49 182.433 682.686 181.27C661.263 175.919 636.594 179.525 602.446 192.786C598.551 194.298 594.916 195.694 591.67 196.974C567.91 206.396 559.86 209.653 539.605 204.419C520.129 199.417 492.084 171.731 471.7 151.607C468.064 148.001 464.689 144.627 461.573 141.719C446.382 127.062 433.398 120.199 422.102 120.897C409.248 121.595 400.679 132.18 393.927 140.788C393.018 141.952 392.109 142.999 391.33 144.045C380.294 157.423 360.559 169.288 329.528 149.978C325.243 147.303 321.348 144.743 317.713 142.301C295.77 127.76 283.695 119.85 262.921 141.603C245.393 159.982 225.138 169.172 200.859 169.521H7.66038C7.40071 169.521 7.27087 169.288 7.27087 169.172C7.27087 168.939 7.53054 168.823 7.66038 168.823H200.599C224.619 168.474 244.744 159.517 262.012 141.254C283.306 118.919 295.64 127.062 317.972 141.835C321.738 144.278 325.503 146.837 329.787 149.513C346.666 159.982 370.816 167.543 390.422 143.813C391.33 142.766 392.109 141.719 393.018 140.556C399.9 131.948 408.599 121.129 421.842 120.431C433.528 119.733 446.641 126.713 462.092 141.486C465.208 144.511 468.584 147.884 472.219 151.374C492.604 171.498 520.519 198.951 539.735 203.953C559.73 209.072 567.001 206.164 591.15 196.625C594.396 195.345 598.032 193.949 601.927 192.437C636.204 179.06 661.133 175.57 682.686 180.921C687.62 182.084 693.592 184.876 700.604 188.017C732.414 202.325 785.777 226.288 874.067 181.619C888.479 174.29 901.073 167.078 912.239 160.796C947.165 140.905 970.146 127.76 1001.44 135.437C1014.68 138.695 1028.44 146.139 1043.12 154.166C1052.07 159.052 1061.42 164.054 1071.42 168.823C1082.98 174.174 1093.23 173.709 1110.37 172.894C1117.9 172.545 1126.47 172.08 1137.12 172.196C1160.88 172.196 1388.61 172.196 1390.95 172.196C1391.21 172.196 1391.34 172.429 1391.34 172.545C1391.34 172.778 1391.08 172.894 1390.95 172.894C1388.61 172.894 1160.88 172.894 1137.12 172.894C1136.99 172.894 1136.99 172.894 1136.86 172.894C1126.47 172.894 1117.9 173.243 1110.5 173.592C1093.36 174.407 1082.98 174.872 1071.16 169.405C1061.03 164.751 1051.68 159.633 1042.73 154.747C1027.53 146.488 1014.42 139.392 1001.31 136.135C970.406 128.574 947.555 141.603 912.758 161.378C901.592 167.776 888.868 174.988 874.456 182.2C840.958 199.068 808.628 207.676 778.376 207.676Z" fill="url(#paint0_linear)"/>
<path opacity="0.3" d="M789.672 211.514C756.564 211.514 731.635 201.393 713.717 194.065C706.576 191.157 700.344 188.598 695.021 187.318C674.636 182.2 645.552 184.759 617.248 194.065C614.911 194.879 612.704 195.577 610.626 196.275C585.308 204.651 576.739 207.559 556.224 201.626C539.216 196.74 515.066 174.057 493.772 154.049C484.554 145.441 475.855 137.298 468.843 131.598C453.133 119.035 440.279 113.567 429.503 115.08C416.389 116.825 408.599 128.341 401.717 138.461C400.938 139.624 400.159 140.788 399.251 141.951C385.228 161.959 366.402 166.728 341.603 156.259C335.89 153.816 330.826 151.257 326.412 148.931C309.403 140.09 298.107 134.273 274.996 150.21C271.231 152.769 265.907 155.91 263.051 157.655C244.224 168.822 227.086 172.894 209.168 170.451C206.831 170.102 152.559 169.52 149.054 169.52H7.53056C7.27088 169.52 7.14105 169.288 7.14105 169.171C7.14105 168.939 7.40072 168.822 7.53056 168.822H149.054C152.17 168.822 206.701 169.404 209.298 169.753C226.956 172.196 243.835 168.241 262.532 157.19C265.388 155.445 270.711 152.304 274.477 149.745C298.107 133.575 309.533 139.508 326.931 148.465C331.346 150.792 336.409 153.351 342.122 155.794C366.402 166.03 384.839 161.377 398.601 141.718C399.38 140.555 400.159 139.392 401.068 138.229C408.08 127.992 416 116.243 429.503 114.498C440.669 112.986 453.782 118.569 469.623 131.249C476.634 136.949 485.333 145.092 494.551 153.7C515.715 173.592 539.865 196.159 556.614 201.044C576.868 206.861 584.659 204.302 610.496 195.693C612.574 194.996 614.781 194.298 617.118 193.483C645.552 184.177 674.896 181.618 695.41 186.736C700.733 188.016 706.966 190.575 714.237 193.483C745.138 206.046 796.813 226.985 875.625 189.645C878.221 188.365 880.948 186.969 884.194 185.34C896.399 178.943 907.175 172.545 917.562 166.379C938.596 153.816 956.773 142.998 975.729 139.973C987.155 138.229 997.153 138.694 1007.41 141.486C1017.67 144.277 1027.92 149.628 1038.7 155.212C1046.75 159.4 1054.93 163.588 1064.02 167.426L1065.32 167.892C1068.56 169.288 1071.42 170.451 1075.7 171.847C1085.96 175.22 1095.44 174.406 1108.68 173.359C1116.86 172.661 1127.12 171.847 1140.1 171.847H1140.23C1163.21 171.847 1389 171.847 1391.21 171.847C1391.47 171.847 1391.6 172.079 1391.6 172.196C1391.6 172.428 1391.34 172.545 1391.21 172.545C1388.87 172.545 1163.09 172.545 1140.23 172.545H1140.1C1127.25 172.545 1116.99 173.359 1108.81 174.057C1095.57 175.104 1085.96 175.918 1075.57 172.428C1071.29 171.032 1068.3 169.753 1065.06 168.473L1063.76 168.008C1054.67 164.286 1046.36 159.981 1038.31 155.794C1027.53 150.21 1017.41 144.975 1007.15 142.184C997.023 139.392 987.025 138.926 975.859 140.671C957.163 143.696 938.985 154.514 917.952 166.961C907.565 173.126 896.788 179.641 884.583 185.922C881.337 187.551 878.611 188.947 876.014 190.226C842.516 206.046 813.952 211.514 789.672 211.514Z" fill="url(#paint1_linear)"/>
<path opacity="0.4" d="M798.371 216.283C767.47 216.283 743.58 206.977 725.013 199.765C718.391 197.206 712.678 194.879 707.485 193.483C687.1 187.667 659.056 188.481 632.309 195.461L630.621 195.926C602.446 203.255 594.007 205.465 573.103 198.834C557.133 193.716 534.671 173.01 512.858 152.886C499.225 140.206 486.242 128.341 476.374 121.71C460.664 111.241 448.069 107.17 437.682 109.263C424.439 111.939 417.038 124.153 409.897 136.018C409.118 137.298 408.339 138.694 407.56 139.973C395.355 159.865 378.477 166.612 354.197 161.261C348.354 159.981 343.031 158.469 338.357 157.19C321.608 152.42 309.533 149.047 287.331 159.051C282.786 161.028 276.424 163.82 273.178 164.983C258.636 170.218 240.719 174.988 217.997 171.381C213.323 170.683 163.076 169.52 155.805 169.52H7.66038C7.40071 169.52 7.27087 169.288 7.27087 169.171C7.27087 168.939 7.53054 168.822 7.66038 168.822H155.545C163.076 168.822 213.063 169.985 217.997 170.8C240.459 174.406 258.247 169.637 272.659 164.402C276.035 163.239 282.267 160.447 286.811 158.469C309.403 148.349 321.608 151.722 338.487 156.492C343.291 157.888 348.354 159.284 354.197 160.563C377.957 165.798 394.706 159.167 406.651 139.624C407.43 138.345 408.209 136.949 408.988 135.669C416.129 123.688 423.66 111.241 437.293 108.449C447.94 106.355 460.794 110.427 476.764 121.012C486.761 127.643 499.745 139.624 513.378 152.304C534.022 171.381 557.393 193.018 573.233 198.02C593.877 204.534 602.317 202.324 630.232 194.996L631.919 194.53C658.796 187.434 687.1 186.736 707.615 192.553C712.808 194.065 718.651 196.275 725.273 198.951C758.122 211.746 807.72 231.173 884.324 193.018C887.18 191.622 889.907 190.11 892.503 188.598C902.631 183.014 911.849 177.314 920.808 171.73C942.621 158.12 961.577 146.371 982.221 144.626C993.517 143.58 1003.26 144.51 1012.86 147.418C1021.69 150.094 1030.26 154.398 1039.48 158.818C1048.7 163.355 1058.31 168.124 1069.34 171.847C1072.72 173.01 1075.83 174.057 1081.42 174.871C1090.38 176.151 1098.04 175.22 1107.64 174.057C1116.47 173.01 1127.38 171.614 1142.96 171.614H1143.09C1165.29 171.614 1389 171.614 1391.34 171.614C1391.6 171.614 1391.73 171.847 1391.73 171.963C1391.73 172.196 1391.47 172.312 1391.34 172.312C1389.13 172.312 1165.29 172.312 1143.09 172.312H1142.96C1127.51 172.312 1116.6 173.708 1107.77 174.755C1098.17 175.918 1090.51 176.965 1081.29 175.569C1075.7 174.755 1072.46 173.708 1069.08 172.545C1058.05 168.822 1048.44 164.053 1039.09 159.516C1030 155.096 1021.43 150.908 1012.6 148.116C1003.13 145.208 993.517 144.277 982.351 145.324C961.967 147.186 943.14 158.818 921.327 172.312C912.369 177.896 903.15 183.596 893.023 189.179C890.426 190.575 887.57 192.204 884.713 193.6C851.085 210.583 822.521 216.283 798.371 216.283Z" fill="url(#paint2_linear)"/>
<path opacity="0.5" d="M806.94 220.936C777.078 220.936 753.707 212.095 735.4 205.116C729.817 203.022 724.624 201.044 719.82 199.532C699.046 193.018 672.559 191.971 647.111 196.74C619.845 201.859 610.237 203.138 589.592 196.042C574.142 190.691 552.069 170.218 530.516 150.443C512.858 134.041 496.109 118.569 483.515 111.706C468.324 103.331 455.99 100.539 445.992 103.098C431.97 106.588 424.179 120.198 416.779 133.343C415.87 134.971 414.961 136.6 414.052 138.112C413.663 138.926 413.143 139.624 412.624 140.555C406.651 151.14 396.654 168.822 365.363 171.265C349.263 172.544 337.837 171.149 327.84 169.985C321.088 169.171 314.596 168.357 307.455 168.473C298.107 168.589 288.11 169.985 279.41 171.265L278.631 171.381C269.932 172.661 251.625 174.406 226.696 172.544C219.036 171.963 172.554 169.636 162.167 169.636H7.66038C7.40071 169.636 7.27087 169.404 7.27087 169.287C7.27087 169.055 7.53054 168.938 7.66038 168.938H162.037C172.424 168.938 218.906 171.265 226.567 171.846C251.495 173.708 269.673 171.963 278.372 170.683L279.151 170.567C287.98 169.287 297.977 167.891 307.326 167.775C314.596 167.659 321.088 168.473 327.84 169.287C338.357 170.567 349.133 171.846 365.233 170.567C396.005 168.124 405.872 150.791 411.715 140.322C412.234 139.508 412.624 138.694 413.143 137.879C414.052 136.251 414.961 134.739 415.87 133.11C423.4 119.849 431.32 106.122 445.732 102.516C455.99 99.9571 468.584 102.749 484.035 111.241C496.759 118.22 513.508 133.692 531.166 150.094C552.589 169.869 574.661 190.342 589.852 195.577C610.237 202.556 619.715 201.277 646.851 196.275C672.429 191.506 699.175 192.552 720.079 199.067C724.883 200.579 730.207 202.557 735.79 204.65C768.768 217.214 818.496 236.058 893.283 196.973C895.879 195.577 898.476 194.065 901.203 192.552C909.772 187.55 917.692 182.432 925.352 177.43C947.555 163.006 966.641 150.443 988.973 149.977C1000.14 149.745 1009.62 151.024 1018.58 154.165C1025.85 156.608 1032.6 159.865 1039.87 163.238C1050.26 168.124 1061.03 173.126 1073.5 176.151C1077.52 177.081 1082.2 177.779 1085.7 177.895C1094.53 178.128 1100.11 176.965 1106.48 175.685C1114.66 174.057 1124.91 172.079 1145.69 172.079H1391.08C1391.34 172.079 1391.47 172.312 1391.47 172.428C1391.47 172.661 1391.21 172.777 1391.08 172.777H1145.69C1124.91 172.777 1114.79 174.755 1106.61 176.383C1100.11 177.663 1094.53 178.826 1085.57 178.593C1081.94 178.477 1077.26 177.895 1073.11 176.849C1060.51 173.824 1049.74 168.822 1039.35 163.82C1032.08 160.447 1025.33 157.189 1018.19 154.747C1009.36 151.722 1000.01 150.443 988.843 150.675C966.771 151.14 947.814 163.587 925.742 177.895C918.081 182.897 910.161 188.132 901.592 193.134C898.866 194.646 896.269 196.159 893.672 197.554C860.044 215.003 831.35 220.936 806.94 220.936Z" fill="url(#paint3_linear)"/>
<path opacity="0.6" d="M815.51 225.822C786.816 225.822 763.834 217.214 744.748 210.002C740.334 208.373 736.179 206.861 732.284 205.465C719.949 201.277 694.242 194.647 662.042 197.904C636.204 200.579 625.817 200.23 606.341 193.018C591.28 187.435 569.338 166.961 548.044 147.186C527.53 127.992 506.237 108.217 491.046 101.47C476.374 94.9555 464.429 93.327 454.691 96.4678C439.63 101.353 431.84 117.29 424.309 132.761C423.66 134.041 423.141 135.204 422.491 136.484C411.066 159.633 395.355 173.708 375.62 178.477C349.782 184.759 316.544 180.455 300.574 178.245C297.977 177.896 295.64 177.547 293.952 177.431C273.827 175.22 258.507 174.173 235.525 172.778L230.462 172.429C215.53 171.498 180.734 169.288 168.659 169.288H7.66038C7.40071 169.288 7.27087 169.055 7.27087 168.939C7.27087 168.706 7.53054 168.59 7.66038 168.59H168.529C180.734 168.59 215.53 170.8 230.462 171.731L235.525 172.08C258.507 173.475 273.957 174.522 294.082 176.733C295.77 176.965 298.107 177.198 300.704 177.547C316.544 179.641 349.653 184.061 375.36 177.78C394.706 173.01 410.287 159.051 421.583 136.135C422.232 134.855 422.751 133.692 423.4 132.412C431.061 116.825 438.981 100.772 454.302 95.7698C464.299 92.5127 476.374 94.1412 491.305 100.772C506.756 107.635 528.049 127.527 548.564 146.72C569.727 166.496 591.67 186.853 606.601 192.437C625.817 199.532 636.204 199.881 661.782 197.206C694.242 193.832 720.079 200.579 732.544 204.767C736.569 206.163 740.594 207.675 745.008 209.304C780.324 222.565 828.623 240.595 902.111 200.23C904.578 198.834 906.915 197.439 909.772 195.694C917.043 191.157 923.924 186.504 930.546 181.967C952.359 166.961 971.315 154.049 994.945 154.049C995.075 154.049 995.335 154.049 995.465 154.049C1004.29 154.165 1013.77 156.027 1024.29 159.982C1029.87 162.076 1035.32 164.635 1040.65 166.961C1052.33 172.312 1064.28 177.78 1078.82 179.873C1083.23 180.455 1089.08 180.571 1092.45 180.106C1098.43 179.175 1103.23 178.012 1108.29 176.733C1118.16 174.173 1128.42 171.614 1148.67 171.614C1148.67 171.614 1148.67 171.614 1148.8 171.614C1169.58 171.614 1391.34 171.614 1391.34 171.614V172.429C1391.34 172.429 1169.58 172.429 1148.8 172.429C1148.8 172.429 1148.8 172.429 1148.67 172.429C1128.68 172.429 1118.42 174.988 1108.55 177.547C1103.75 178.826 1098.69 179.99 1092.58 180.92C1089.08 181.386 1083.1 181.386 1078.69 180.688C1064.02 178.594 1051.94 173.01 1040.26 167.775C1034.94 165.333 1029.48 162.89 1023.9 160.796C1013.51 156.841 1004.16 154.98 995.465 154.863C995.335 154.863 995.075 154.863 994.945 154.863C971.575 154.863 952.878 167.775 931.195 182.549C924.573 187.086 917.692 191.855 910.421 196.392C907.565 198.137 905.228 199.532 902.761 200.928C868.613 219.657 839.919 225.822 815.51 225.822Z" fill="url(#paint4_linear)"/>
<path opacity="0.7" d="M823.949 230.824C822.132 230.824 820.184 230.824 818.366 230.707C792.399 229.661 771.105 221.634 752.279 214.538C749.682 213.491 747.085 212.561 744.618 211.63C729.038 205.93 704.758 199.183 676.843 199.299C655.16 199.416 642.956 198.253 622.961 190.342C608.159 184.526 587.385 164.751 565.313 143.928C541.293 121.245 516.364 97.747 498.317 91.4654C479.36 84.8349 465.598 85.7655 454.951 94.3736C445.473 102.051 439.63 114.963 433.398 128.573C432.749 130.086 431.97 131.598 431.32 133.11C421.842 153.583 408.729 171.149 396.913 179.059C372.374 196.042 350.691 192.553 327.84 188.83C324.854 188.365 321.867 187.9 318.751 187.434C317.713 187.318 314.467 186.62 309.533 185.689C294.082 182.665 265.128 176.965 243.705 174.289C230.721 172.661 191.9 169.52 174.891 169.52H7.66038C7.40071 169.52 7.27087 169.287 7.27087 169.171C7.27087 168.938 7.53054 168.822 7.66038 168.822H174.891C191.9 168.822 230.851 172.079 243.835 173.591C265.258 176.267 294.212 181.967 309.663 184.991C314.337 185.922 317.842 186.62 318.881 186.736C321.997 187.202 324.983 187.667 327.97 188.132C351.6 191.971 372.115 195.344 396.264 178.594C407.69 170.916 421.063 153.002 430.282 132.994C430.931 131.482 431.71 129.969 432.359 128.457C444.564 101.586 456.119 76.1104 498.446 90.8838C516.624 97.2817 541.553 120.78 565.702 143.579C587.775 164.402 608.549 183.944 623.091 189.761C642.826 197.555 655.031 198.834 676.584 198.718C704.629 198.602 729.168 205.348 744.748 211.048C747.215 211.979 749.812 212.91 752.409 213.957C771.105 221.052 792.399 229.079 818.236 230.126C848.099 231.289 878.351 222.797 910.811 204.069C913.148 202.673 915.355 201.277 918.082 199.416C924.573 195.112 930.806 190.575 936.778 186.038C957.033 171.149 976.119 156.957 1001.18 159.167C1010.01 159.865 1019.74 162.424 1029.61 166.496C1033.12 168.008 1036.75 169.52 1040.26 171.149C1053.76 177.198 1067.91 183.479 1084.92 183.712C1088.04 183.828 1091.93 183.247 1095.57 182.432C1098.69 181.618 1101.93 180.687 1105.31 179.524C1115.95 176.151 1129.2 171.847 1151.14 171.847C1171.14 171.847 1390.82 171.847 1390.82 171.847V172.661C1390.82 172.661 1171.01 172.661 1151.14 172.661C1129.33 172.661 1116.08 176.849 1105.57 180.222C1102.19 181.269 1098.95 182.316 1095.7 183.13C1091.93 184.061 1087.91 184.526 1084.79 184.41C1067.52 184.061 1053.37 177.779 1039.74 171.73C1036.23 170.218 1032.73 168.589 1029.09 167.077C1019.35 163.122 1009.75 160.563 1001.05 159.865C976.379 157.771 957.422 171.73 937.297 186.62C931.325 191.04 925.093 195.693 918.471 199.997C915.744 201.742 913.537 203.255 911.2 204.65C880.948 222.216 852.254 230.824 823.949 230.824Z" fill="url(#paint5_linear)"/>
<path opacity="0.8" d="M832.389 235.942C830.441 235.942 828.494 235.942 826.546 235.826C800.059 234.663 777.467 225.822 757.472 217.912L756.823 217.679C741.502 211.63 718.132 203.371 691.385 200.579C670.481 198.369 657.368 195.112 639.32 187.435C624.779 181.269 604.004 161.378 582.062 140.439C554.666 114.149 526.232 86.929 505.328 81.4617C466.506 71.225 455.86 95.0718 443.525 122.757C442.227 125.666 440.799 128.806 439.37 131.831C429.243 153.467 418.856 169.055 405.613 182.316C378.477 208.722 353.028 202.673 326.022 196.275C323.036 195.577 320.309 194.414 317.323 193.018C316.025 192.437 314.596 191.855 313.168 191.273C302.392 186.969 283.046 180.688 252.145 175.22C237.733 172.661 202.157 169.52 181.123 169.52H7.66038C7.40071 169.52 7.27087 169.288 7.27087 169.171C7.27087 168.939 7.53054 168.822 7.66038 168.822H181.383C202.417 168.822 238.122 171.963 252.534 174.639C277.073 179.059 298.107 184.643 313.688 190.808C315.116 191.39 316.544 191.971 317.842 192.553C320.699 193.832 323.555 194.996 326.412 195.694C353.158 202.092 378.477 208.024 405.223 181.967C418.467 168.822 428.854 153.235 438.851 131.714C440.279 128.69 441.578 125.666 443.006 122.641C455.47 94.6065 466.247 70.4108 505.847 80.8801C527.011 86.4637 555.445 113.8 582.971 140.09C604.784 161.029 625.557 180.804 639.84 186.969C658.017 194.647 670.611 197.788 691.645 199.998C718.521 202.79 742.022 211.165 757.213 217.098L757.862 217.33C777.727 225.124 800.319 233.965 826.676 235.128C856.798 236.408 887.31 227.451 919.899 207.559C922.236 206.163 924.573 204.534 926.911 202.906C932.234 199.183 937.427 195.112 942.361 191.273C962.746 175.453 981.962 160.447 1008.97 164.402C1017.15 165.565 1025.59 168.241 1035.45 172.661C1037.53 173.592 1039.61 174.522 1041.69 175.569C1057.01 182.665 1071.42 189.296 1088.17 187.667C1093.1 187.202 1097.13 185.806 1100.76 184.643C1103.49 183.712 1106.22 182.665 1109.07 181.386C1119.33 177.198 1132.18 171.847 1154.13 171.847C1173.34 171.847 1391.08 171.847 1391.08 171.847V172.661C1391.08 172.661 1173.34 172.661 1154.13 172.661C1132.44 172.661 1119.72 177.896 1109.46 182.084C1106.48 183.247 1103.75 184.41 1101.02 185.341C1097.39 186.62 1093.23 188.016 1088.17 188.481C1071.16 190.11 1056.62 183.363 1041.17 176.267C1039.09 175.337 1037.01 174.29 1034.94 173.359C1025.2 168.939 1016.89 166.38 1008.71 165.1C982.221 161.145 963.005 176.035 942.751 191.739C937.687 195.577 932.494 199.649 927.17 203.371C924.833 205 922.496 206.628 920.159 208.024C889.777 226.753 860.953 235.942 832.389 235.942Z" fill="url(#paint6_linear)"/>
<path opacity="0.9" d="M841.088 241.177C840.568 241.177 840.049 241.177 839.4 241.177C812.653 240.828 789.153 231.987 769.288 223.728C751.889 216.516 730.206 207.442 706.316 201.859C688.529 197.671 674.506 192.902 656.069 184.642C641.657 178.245 621.143 158.12 599.33 136.833C569.987 108.216 536.749 75.7615 512.858 71.3411C493.642 67.8513 479.62 72.0391 468.843 84.6022C458.976 96.2348 453.003 114.033 447.68 129.62C440.02 152.304 424.829 177.547 416.389 188.249C390.292 221.401 362.636 216.05 336.799 205.232C333.423 203.836 330.307 201.975 326.801 199.881C325.633 199.183 324.594 198.485 323.296 197.904C309.273 189.761 288.889 182.665 260.844 176.034C244.874 172.312 212.804 169.287 187.615 169.287H7.66038C7.40071 169.287 7.27087 169.055 7.27087 168.938C7.27087 168.706 7.53054 168.59 7.66038 168.59H187.875C213.063 168.59 245.263 171.498 261.233 175.336C289.278 181.967 309.792 189.179 323.945 197.322C325.113 198.02 326.282 198.718 327.45 199.416C330.826 201.393 333.942 203.371 337.318 204.651C380.684 222.681 400.679 207.21 415.87 187.9C424.309 177.198 439.5 152.071 447.031 129.504C458.067 96.7001 469.493 62.6167 513.118 70.6431C537.268 75.0635 570.636 107.635 600.109 136.367C621.922 157.539 642.436 177.663 656.589 184.061C674.896 192.32 688.918 197.089 706.576 201.161C730.466 206.744 752.149 215.818 769.677 223.03C789.542 231.289 812.783 240.13 839.4 240.479C868.224 240.828 897.437 231.173 928.598 211.048C930.676 209.653 932.753 208.14 935.22 206.279C939.764 202.789 944.309 199.067 948.723 195.461C967.809 179.524 987.545 163.122 1015.85 169.287C1024.16 171.032 1032.99 175.104 1040.78 178.71L1042.6 179.524C1045.06 180.687 1047.4 181.734 1049.74 182.898C1065.45 190.342 1076.74 195.693 1095.57 190.808C1098.82 189.993 1102.06 188.598 1105.05 187.318C1107.38 186.271 1109.85 184.991 1112.45 183.712C1122.71 178.477 1135.43 171.847 1157.11 171.847C1175.42 171.847 1391.21 171.847 1391.21 171.847C1391.47 171.847 1391.6 172.079 1391.6 172.196C1391.6 172.428 1391.34 172.545 1391.21 172.545C1391.21 172.545 1175.42 172.545 1157.11 172.545C1135.69 172.545 1123.1 179.059 1112.97 184.293C1110.37 185.573 1107.9 186.853 1105.57 187.9C1102.45 189.296 1099.2 190.575 1095.96 191.506C1076.87 196.508 1065.45 191.04 1049.48 183.596C1047.27 182.549 1044.8 181.385 1042.34 180.222L1040.52 179.408C1032.73 175.802 1024.03 171.847 1015.85 169.985C988.064 163.936 968.458 180.222 949.502 196.042C945.088 199.649 940.543 203.487 935.999 206.861C933.532 208.722 931.455 210.234 929.248 211.63C898.476 231.522 869.652 241.177 841.088 241.177Z" fill="url(#paint7_linear)"/>
<path d="M849.917 246.646C823.819 246.646 800.838 238.154 781.752 229.778C775.65 227.103 769.417 224.311 762.926 221.286C749.682 215.238 736.049 208.956 721.248 203.256C705.278 197.091 690.996 190.576 672.818 181.968C658.536 175.221 638.152 154.748 616.339 133.228C583.88 100.889 547.006 64.2466 520.129 61.4548C478.322 57.1507 467.415 91.4669 455.73 127.877C448.069 151.84 437.423 176.966 428.724 191.74C417.428 210.701 405.223 221.519 391.071 224.776C378.217 227.684 364.324 224.544 347.315 214.54C342.901 211.98 338.616 208.723 333.942 205.234L333.423 204.768C317.972 193.136 296.419 183.83 269.543 177.199C250.327 172.43 221.503 169.521 194.107 169.521H7.66032C7.40064 169.521 7.27081 169.289 7.27081 169.173C7.27081 168.94 7.53048 168.824 7.66032 168.824H194.237C221.633 168.824 250.586 171.732 269.802 176.501C296.809 183.132 318.492 192.554 334.072 204.187L334.591 204.652C339.136 208.142 343.55 211.399 347.835 213.958C364.584 223.729 378.347 226.986 390.811 224.078C404.574 220.937 416.779 210.236 427.815 191.391C436.514 176.617 447.161 151.724 454.821 127.761C466.636 91.1179 477.672 56.4528 520.129 60.8731C547.265 63.665 584.269 100.424 616.858 132.879C638.541 154.399 658.926 174.756 673.078 181.503C691.125 190.111 705.537 196.625 721.378 202.791C736.179 208.491 749.942 214.772 763.055 220.938C769.547 223.962 775.78 226.754 781.882 229.429C801.617 238.037 825.377 246.878 852.384 246.18C879.779 245.599 907.565 235.362 937.297 214.889C938.726 213.958 940.024 212.911 941.322 211.864C942.101 211.282 942.88 210.701 943.659 210.119C948.723 206.28 953.657 201.86 958.461 197.672C976.898 181.387 994.166 166.032 1021.95 174.756C1029.35 177.083 1036.88 180.34 1046.36 185.458L1047.53 186.04C1064.02 194.881 1079.6 203.256 1100.5 195.113C1103.62 193.95 1106.74 192.089 1109.59 190.227C1111.15 189.297 1112.71 188.25 1114.4 187.203C1124.65 180.456 1137.38 172.081 1159.71 172.081C1177.24 172.081 1390.95 172.081 1390.95 172.081V172.895C1390.95 172.895 1177.24 172.895 1159.71 172.895C1137.64 172.895 1125.04 181.154 1114.92 187.901C1113.23 188.948 1111.67 189.995 1110.11 190.925C1107.13 192.787 1104.01 194.648 1100.76 195.811C1079.47 204.07 1063.76 195.695 1047.01 186.738L1045.84 186.156C1036.36 181.154 1028.96 177.781 1021.56 175.57C994.426 166.962 977.158 182.201 958.98 198.254C954.176 202.558 949.243 206.862 944.049 210.817C943.27 211.399 942.491 211.98 941.712 212.562C940.284 213.609 938.985 214.656 937.557 215.703C907.695 236.293 879.779 246.529 852.124 247.111C851.734 246.646 850.826 246.646 849.917 246.646Z" fill="url(#paint8_linear)"/>
<path d="M859.912 252.926C820.052 252.926 783.438 231.871 741.76 207.908C725.271 198.369 708.132 188.481 689.436 179.175C675.283 172.079 654.769 150.792 633.086 128.225C597.9 91.6983 557.91 50.2863 528.437 49.472C483.643 48.1924 472.996 91.0003 461.7 136.251C456.507 157.19 451.054 178.826 442.095 196.624C429.89 220.355 420.931 228.265 411.194 232.801C391.978 241.759 368.607 234.43 343.808 211.398C313.686 183.596 265.646 169.52 200.857 169.52H7.65842C7.39874 169.52 7.26891 169.288 7.26891 169.171C7.26891 168.939 7.52858 168.822 7.65842 168.822H200.597C265.646 168.822 313.945 183.014 344.197 211.049C368.737 233.732 391.588 241.061 410.544 232.22C420.152 227.799 428.981 220.006 441.056 196.392C450.015 178.71 455.468 157.073 460.662 136.251C472.087 90.6513 482.864 47.6108 528.307 48.774C558.3 49.5883 598.29 91.1166 633.605 127.759C655.288 150.21 675.673 171.498 689.825 178.477C708.522 187.9 725.66 197.671 742.15 207.21C777.725 227.683 808.367 245.365 840.696 250.599C876.142 256.416 909.77 246.179 946.774 218.493C952.097 214.538 957.29 209.42 962.744 204.185C979.623 187.9 998.709 169.404 1025.59 179.99C1032.6 182.781 1039.48 186.504 1046.1 190.226C1065.45 200.812 1083.75 210.932 1105.69 198.834C1109.33 196.857 1112.84 193.832 1116.6 190.692C1126.47 182.316 1138.8 171.73 1162.69 171.73H1391.21C1391.47 171.73 1391.6 171.963 1391.6 172.079C1391.6 172.312 1391.34 172.428 1391.21 172.428H1162.69C1139.19 172.428 1126.99 182.781 1117.25 191.157C1113.49 194.414 1109.98 197.438 1106.21 199.416C1083.88 211.63 1064.54 201.045 1045.71 190.808C1039.09 187.202 1032.21 183.363 1025.33 180.688C998.968 170.335 980.921 187.783 963.523 204.651C958.07 210.002 952.746 215.004 947.423 219.075C914.963 243.387 886.659 252.926 859.912 252.926Z" fill="url(#paint9_linear)"/>
<path d="M387.306 258.277C364.714 258.277 350.691 243.038 331.346 221.983C324.205 214.189 316.155 205.465 306.547 196.392C278.631 169.753 230.462 169.52 229.813 169.52H7.66046C7.27095 169.52 7.01127 169.288 7.01127 168.939C7.01127 168.59 7.27095 168.357 7.66046 168.357H229.813C230.592 168.357 279.151 168.59 307.455 195.577C316.934 204.651 325.113 213.492 332.254 221.169C351.47 241.991 365.363 256.997 387.176 256.997C421.453 256.997 444.694 222.565 464.689 141.719L465.987 136.368C479.88 80.4148 500.784 -4.03776 542.461 0.149965C571.675 3.05811 598.421 51.3333 624.259 98.0963C636.334 120.082 647.89 140.788 659.315 156.376C678.791 183.014 702.551 202.673 728.129 213.492C758.122 226.055 789.283 226.055 820.833 213.492C837.193 206.977 851.085 199.881 863.29 193.716C890.556 179.757 910.291 169.753 930.416 181.153C940.284 186.737 948.464 193.716 955.605 199.881C969.497 211.747 980.533 221.053 996.114 215.934C1018.32 208.722 1026.76 171.614 1034.29 139.043C1040.65 111.241 1046.62 84.8352 1060.25 79.7169C1078.82 72.621 1092.32 94.9555 1106.48 118.686C1120.63 142.067 1136.6 168.706 1159.84 170.218C1206.19 173.359 1389.26 172.08 1391.08 172.08C1391.47 172.08 1391.73 172.312 1391.73 172.661C1391.73 173.01 1391.47 173.243 1391.08 173.243C1389.26 173.243 1206.19 174.522 1159.71 171.382C1135.82 169.753 1119.59 142.882 1105.31 119.151C1090.77 94.9555 1078.17 74.1332 1060.64 80.7638C1047.66 85.6495 1041.69 111.706 1035.45 139.276C1027.92 172.196 1019.35 209.653 996.503 217.098C980.144 222.449 968.329 212.445 954.566 200.812C947.425 194.763 939.245 187.784 929.507 182.316C910.162 171.265 891.725 180.688 863.68 194.879C851.475 201.161 837.582 208.141 821.093 214.771C789.153 227.567 757.602 227.567 727.35 214.771C701.512 203.953 677.622 184.061 658.017 157.306C646.591 141.602 635.036 120.896 622.961 98.9106C597.253 52.4966 570.766 4.45402 542.202 1.6622C501.692 -2.4092 480.918 81.4617 467.156 136.949L465.857 142.3C445.862 223.612 422.362 258.277 387.306 258.277Z" fill="url(#paint10_linear)"/>
<path d="M381.593 244.318C380.424 244.318 379.126 244.318 377.827 244.201C372.894 243.852 368.349 242.922 364.194 241.41C349.782 235.942 338.616 226.055 324.594 213.491C322.127 211.397 319.66 209.071 317.063 206.861L315.376 205.465C310.312 201.044 305.118 196.391 298.886 191.738C279.281 176.849 250.067 171.963 234.357 170.334C228.644 169.753 223.97 169.753 223.97 169.753H7.66049C7.27098 169.753 6.88147 169.52 6.88147 169.055C6.88147 168.706 7.14114 168.357 7.66049 168.357H224.23C224.359 168.357 229.034 168.357 234.876 168.939C250.716 170.567 280.19 175.453 300.185 190.575C306.417 195.228 311.61 199.881 316.674 204.418L318.362 205.814C320.959 208.14 323.425 210.351 325.892 212.444C339.785 224.891 350.821 234.779 364.973 240.014C368.998 241.526 373.413 242.456 378.217 242.805C403.795 244.434 422.362 228.614 440.279 189.761C446.252 176.849 452.094 160.098 457.677 140.09C458.586 136.6 459.625 133.11 460.534 129.388C475.335 74.482 495.72 -0.78084 534.801 2.24363C564.274 4.45382 591.151 50.7515 617.118 95.4206C628.674 115.429 639.71 134.273 650.616 148.931C670.871 176.034 726.182 236.059 804.344 207.326C820.963 201.277 835.245 194.298 847.71 188.249C875.105 174.871 894.971 165.332 915.874 174.987C926.391 179.873 934.701 186.155 942.881 192.32C945.347 194.181 947.814 196.042 950.151 197.787C961.707 206.046 971.315 210.583 983.909 207.559C993.258 205.349 1000.66 198.951 1008.97 186.387C1019.87 169.52 1027.92 144.743 1035.2 122.873L1036.1 119.849C1041.82 102.517 1047.79 86.5798 1057.92 82.1595C1064.54 79.3676 1071.03 80.0656 1077.65 84.3697C1087.65 90.8839 1096.48 105.541 1105.96 121.012C1119.98 144.161 1135.95 170.334 1158.41 173.126C1161.79 173.592 1165.68 173.824 1170.1 174.057C1180.48 174.638 1193.08 173.824 1206.32 173.01C1218.66 172.196 1231.25 171.498 1244.75 171.498C1306.95 171.498 1390.3 171.847 1391.08 171.847C1391.47 171.847 1391.86 172.196 1391.86 172.545C1391.86 172.894 1391.6 173.243 1391.08 173.243C1390.3 173.243 1306.95 172.894 1244.75 172.894C1231.25 172.894 1218.66 173.708 1206.32 174.406C1192.95 175.22 1180.35 176.034 1169.84 175.453C1165.42 175.22 1161.4 174.871 1158.02 174.522C1134.78 171.614 1118.68 145.092 1104.53 121.71C1095.18 106.355 1086.35 91.8145 1076.61 85.4166C1070.38 81.3452 1064.41 80.6472 1058.31 83.3227C1048.7 87.3941 1042.86 103.098 1037.27 120.198L1036.36 123.222C1029.22 145.208 1021.04 170.102 1010.01 187.085C1001.57 200.114 993.907 206.628 984.169 208.955C971.055 212.095 961.058 207.442 949.113 198.951C946.646 197.206 944.309 195.461 941.712 193.483C933.662 187.434 925.352 181.153 914.965 176.267C894.711 166.845 875.235 176.383 848.229 189.528C835.635 195.693 821.353 202.557 804.733 208.722C790.062 214.073 776.169 216.399 763.185 216.399C706.187 216.399 665.937 172.079 649.318 149.745C638.282 134.971 627.375 116.127 615.69 96.1186C589.852 51.6821 563.235 5.7334 534.541 3.63954C496.629 0.731392 475.595 78.437 461.832 129.853C460.794 133.575 459.885 137.182 458.976 140.555C453.393 160.679 447.55 177.43 441.578 190.459C424.05 227.916 406.002 244.318 381.593 244.318Z" fill="url(#paint11_linear)"/>
<path d="M376.659 230.591C374.062 230.591 371.336 230.359 368.479 230.01C363.545 229.312 359.39 228.265 355.495 226.636C342.122 221.052 331.735 213.84 319.53 205.349C316.284 203.022 312.909 200.695 309.273 198.253C308.105 197.438 306.806 196.624 305.638 195.81C301.353 192.785 296.809 189.761 291.615 186.736C277.203 178.594 256.04 173.01 228.644 170.218C223.58 169.753 218.517 169.753 218.517 169.753H7.66049C7.27098 169.753 6.88147 169.404 6.88147 169.055C6.88147 168.706 7.27098 168.357 7.66049 168.357H218.517C218.517 168.357 223.71 168.357 228.904 168.822C256.429 171.614 277.853 177.198 292.524 185.573C297.847 188.598 302.262 191.622 306.676 194.647C307.975 195.461 309.143 196.275 310.312 197.089C313.947 199.532 317.323 201.975 320.699 204.185C332.774 212.561 343.161 219.773 356.274 225.24C359.91 226.752 364.065 227.799 368.739 228.497C387.176 231.057 407.43 227.567 431.191 185.573C437.683 174.173 444.045 158.237 450.017 138.345C451.445 133.459 453.003 128.341 454.561 122.99C469.493 72.0391 489.747 2.2436 526.621 4.10482C556.354 5.61705 583.49 49.9372 609.717 92.7451C620.754 110.659 631.141 127.643 641.528 141.369C698.656 216.632 757.473 211.165 787.465 201.161C804.474 195.461 819.275 188.598 832.259 182.549C858.616 170.334 879.39 160.679 901.073 168.706C912.369 172.894 921.717 178.943 930.806 184.759C932.883 186.155 934.961 187.434 937.168 188.83C949.632 196.74 959.37 200.928 971.575 199.067C982.221 197.438 989.752 191.506 998.191 182.549C1010.14 169.869 1021.69 149.628 1032.47 122.408L1032.86 121.478C1039.61 104.261 1045.58 89.3717 1055.45 84.6023C1062.07 81.4615 1068.56 81.8105 1075.44 85.7655C1085.83 91.8145 1095.31 107.169 1105.18 123.455C1119.2 146.371 1135.04 172.312 1156.85 176.267C1160.36 176.849 1164.25 177.314 1168.54 177.663C1179.44 178.361 1191.52 176.732 1204.24 174.987C1216.58 173.243 1229.43 171.498 1243.07 171.498C1300.97 171.498 1390.3 171.73 1391.21 171.73C1391.6 171.73 1391.99 172.079 1391.99 172.428C1391.99 172.777 1391.6 173.126 1391.21 173.126C1390.3 173.126 1300.97 172.777 1243.07 172.894C1229.56 172.894 1216.84 174.638 1204.5 176.383C1191.65 178.128 1179.44 179.873 1168.41 179.059C1163.99 178.826 1159.97 178.361 1156.46 177.663C1133.87 173.592 1117.9 147.302 1103.75 124.153C1093.88 107.984 1084.66 92.8614 1074.54 87.0451C1068.17 83.439 1062.2 82.9737 1056.1 85.8819C1046.75 90.3023 1041.04 104.959 1034.29 121.943L1033.9 122.873C1023.12 150.326 1011.43 170.683 999.36 183.479C990.791 192.436 982.871 198.834 971.705 200.463C958.981 202.44 948.983 198.136 936.129 189.993C934.052 188.714 931.974 187.318 929.767 185.922C920.808 180.106 911.59 174.057 900.424 169.985C879.52 162.192 859.006 171.73 833.038 183.828C819.924 189.877 805.123 196.74 788.114 202.44C759.81 211.863 731.635 210.118 704.499 197.089C681.647 186.155 659.445 167.194 640.359 142.067C629.842 128.341 619.455 111.357 608.549 93.3267C582.581 50.8678 555.575 6.89664 526.751 5.38441C526.362 5.38441 525.842 5.38441 525.453 5.38441C490.786 5.38441 470.921 73.435 456.249 123.222C454.691 128.573 453.133 133.692 451.705 138.577C445.603 158.586 439.241 174.639 432.749 186.038C415.091 217.214 398.472 230.591 376.659 230.591Z" fill="url(#paint12_linear)"/>
<path d="M373.283 217.563C368.609 217.563 363.935 216.981 359.131 215.818C354.327 214.771 350.432 213.491 346.926 211.979C338.746 208.257 331.605 204.069 324.724 200.114C317.193 195.81 310.052 191.622 301.483 187.9C294.991 184.992 290.187 183.014 283.955 180.571C265.907 173.824 242.017 171.847 229.163 170.8C226.696 170.567 224.619 170.451 222.931 170.218C218.647 169.753 213.064 169.753 213.064 169.753H7.66044C7.14109 169.753 6.75158 169.404 6.75158 168.939C6.75158 168.473 7.14109 168.124 7.66044 168.124H212.934C212.934 168.124 218.647 168.124 223.061 168.59C224.749 168.706 226.826 168.939 229.163 169.171C242.147 170.218 266.167 172.196 284.474 179.059C290.836 181.502 295.64 183.596 302.132 186.388C310.701 190.226 318.232 194.53 325.503 198.718C332.384 202.673 339.395 206.745 347.575 210.467C350.951 211.979 354.716 213.259 359.39 214.189C380.814 218.842 399.77 215.004 422.232 181.386C429.373 170.567 436.514 155.096 442.616 136.6C444.694 130.319 446.771 123.572 449.108 116.476C464.689 67.2699 483.905 6.08252 518.052 6.08252C518.312 6.08252 518.441 6.08252 518.701 6.08252C548.823 6.78047 576.219 49.2394 602.836 90.3024C613.093 106.239 622.831 121.245 632.569 133.808C651.525 158.237 672.039 176.267 693.463 187.202C718.781 200.114 744.748 202.673 770.586 194.996C788.114 189.761 803.565 183.014 817.198 176.965C843.295 165.449 863.809 156.259 886.142 162.541C898.736 166.031 909.383 172.079 919.769 177.896C921.068 178.594 922.496 179.408 923.794 180.106C934.831 186.155 945.867 191.622 958.851 190.692C970.536 189.877 978.586 184.875 987.155 178.826C1002.87 167.775 1017.54 148.698 1028.57 125.084C1029.48 122.99 1030.52 120.896 1031.43 118.919C1038.05 104.378 1043.76 91.8147 1052.59 87.1616C1059.22 83.6719 1065.84 83.7882 1072.85 87.3943C1083.75 92.8616 1093.62 108.915 1104.01 126.014C1117.9 148.814 1133.74 174.639 1154.91 179.524C1158.41 180.339 1162.44 180.92 1166.59 181.269C1178.15 182.2 1190.22 179.524 1202.95 176.849C1215.02 174.29 1227.48 171.498 1240.86 171.498C1294.48 171.382 1389.91 171.73 1390.82 171.73C1391.34 171.73 1391.73 172.079 1391.73 172.545C1391.73 173.01 1391.34 173.359 1390.82 173.359C1389.91 173.359 1294.48 173.01 1240.86 173.126C1227.74 173.126 1215.28 175.802 1203.33 178.477C1190.48 181.269 1178.28 183.828 1166.46 182.898C1162.18 182.549 1158.15 181.967 1154.39 181.153C1132.44 176.035 1116.47 149.978 1102.32 126.945C1092.06 110.078 1082.33 94.2575 1071.81 88.9065C1065.32 85.6494 1059.22 85.5331 1053.24 88.6739C1044.8 93.0942 1039.22 105.425 1032.73 119.733C1031.82 121.71 1030.91 123.804 1029.87 125.898C1018.84 149.861 1003.9 169.171 987.934 180.339C979.495 186.271 970.796 191.622 958.591 192.437C944.958 193.367 933.792 187.783 922.496 181.618C921.198 180.92 919.769 180.106 918.471 179.408C908.214 173.708 897.567 167.775 885.233 164.286C863.68 158.237 843.295 167.194 817.587 178.594C803.954 184.643 788.374 191.506 770.716 196.741C744.359 204.534 717.872 201.859 692.164 188.83C670.351 177.779 649.707 159.633 630.621 134.972C620.754 122.292 611.146 107.286 600.759 91.3494C574.401 50.6353 547.136 8.52536 518.052 7.82741C517.792 7.82741 517.662 7.82741 517.403 7.82741C484.684 7.82741 465.468 68.3168 450.147 117.057C447.94 124.153 445.732 130.9 443.655 137.182C437.423 155.794 430.282 171.498 423.141 182.316C405.742 209.304 389.902 217.563 373.283 217.563Z" fill="url(#paint13_linear)"/>
<path d="M369.778 205.116C362.896 205.116 356.145 203.604 349.653 201.626C345.498 200.346 335.76 196.508 332.384 194.995C330.307 194.065 328.229 193.134 326.282 192.204C310.572 184.991 298.107 179.291 275.515 175.22C254.612 171.381 237.992 170.916 227.086 170.683C222.801 170.567 219.555 170.451 216.959 170.218C213.323 169.869 207.351 169.869 207.351 169.869H7.66044C7.14109 169.869 6.75158 169.52 6.75158 169.055C6.75158 168.589 7.14109 168.24 7.66044 168.24H207.221C207.48 168.24 213.323 168.241 217.088 168.589C219.555 168.822 222.801 168.938 226.956 169.055C237.992 169.287 254.741 169.753 275.775 173.591C298.497 177.779 311.091 183.479 326.931 190.691C328.879 191.622 330.956 192.553 333.033 193.483C336.799 195.228 346.277 198.834 350.172 199.997C372.244 206.744 391.46 205.465 413.273 177.314C421.193 167.194 428.983 152.071 435.216 134.971C437.812 127.759 440.539 119.965 443.266 111.706C458.846 65.8738 478.192 8.87411 510.651 8.29248C510.781 8.29248 511.041 8.29248 511.171 8.29248C541.553 8.29248 569.338 48.8902 596.084 88.2083C605.563 102.051 614.521 115.196 623.48 126.48C675.545 192.436 723.066 196.857 753.837 189.063C772.014 184.41 787.595 177.779 802.786 171.381C827.455 160.912 848.748 151.955 871.47 156.492C886.012 159.4 898.736 165.565 910.941 171.498C924.314 178.012 935.09 181.269 946.776 182.549C957.682 183.712 965.732 180.222 974.951 176.151L976.768 175.336C996.374 166.845 1013.12 150.443 1025.2 127.875C1027.02 124.502 1028.7 121.129 1030.26 117.988C1036.62 105.308 1042.21 94.4899 1050.26 89.8369C1056.75 86.1144 1063.5 85.7655 1070.9 89.0226C1082.2 93.9083 1092.45 110.776 1103.36 128.573C1117.25 151.257 1132.96 176.965 1153.61 182.781C1157.24 183.828 1161.14 184.526 1165.29 184.875C1177.76 186.038 1189.83 182.432 1202.56 178.594C1214.24 175.104 1226.32 171.498 1239.3 171.498C1288.64 171.381 1390.04 171.73 1391.08 171.73C1391.6 171.73 1391.99 172.079 1391.99 172.545C1391.99 173.01 1391.6 173.359 1391.08 173.359C1390.04 173.359 1288.64 173.01 1239.3 173.126C1226.58 173.126 1214.76 176.732 1203.21 180.106C1190.22 183.944 1178.02 187.551 1165.16 186.387C1160.88 186.038 1156.85 185.224 1153.09 184.177C1131.66 178.128 1115.82 152.071 1101.67 129.155C1090.9 111.59 1080.77 95.0715 1069.99 90.3022C1063.37 87.394 1057.14 87.6267 1051.3 91.0001C1043.63 95.4205 1038.18 106.122 1031.95 118.453C1030.26 121.71 1028.7 124.967 1026.89 128.341C1014.68 151.257 997.672 167.892 977.677 176.5L975.859 177.314C966.641 181.269 958.072 185.108 946.646 183.828C934.701 182.549 923.794 179.175 910.162 172.545C898.087 166.728 885.492 160.563 871.21 157.771C849.138 153.351 828.104 162.192 803.825 172.545C789.413 178.71 772.923 185.573 754.616 190.226C723.325 198.253 674.896 193.716 622.312 127.061C613.223 115.661 604.264 102.516 594.786 88.6736C568.169 49.7045 540.774 9.45574 511.43 9.45574C511.301 9.45574 511.041 9.45574 510.911 9.45574C479.75 9.92104 460.664 66.3391 445.343 111.706C442.487 119.965 439.89 127.875 437.293 135.088C430.931 152.42 423.141 167.659 415.091 177.896C398.861 198.951 383.8 205.116 369.778 205.116Z" fill="url(#paint14_linear)"/>
<path d="M367.57 194.182C358.222 194.182 349.133 191.157 340.174 187.435C335.89 185.69 332.384 184.061 329.398 182.549C310.182 172.312 300.055 172.08 286.032 171.731C283.955 171.731 281.748 171.614 279.411 171.498C265.128 170.916 246.691 170.8 231.89 170.567C222.152 170.451 214.492 170.335 211.116 170.218C208.26 170.102 201.768 169.986 201.638 169.869H7.66046C7.14111 169.869 6.62176 169.52 6.62176 168.939C6.62176 168.474 7.01127 168.008 7.66046 168.008H201.638C201.768 168.008 208.26 168.125 211.116 168.357C214.492 168.474 222.152 168.59 231.89 168.706C246.691 168.823 265.128 169.055 279.54 169.637C281.877 169.753 284.085 169.753 286.162 169.869C300.574 170.218 310.961 170.451 330.567 181.037C333.553 182.665 336.799 184.178 341.083 185.922C360.819 193.949 380.554 198.951 404.574 173.243C413.013 164.169 421.323 149.978 427.945 133.343C431.191 125.2 434.437 116.243 437.812 106.704C453.912 62.0354 472.219 11.3173 502.861 10.2704C534.152 9.22347 562.846 48.6579 590.501 86.6965C598.941 98.2127 606.861 109.147 614.781 119.035C655.81 169.986 697.098 191.39 737.348 183.014C756.434 179.059 773.053 172.312 789.023 165.798C812.134 156.492 833.817 147.651 856.798 150.443C871.73 152.304 885.363 157.423 897.957 162.774C910.421 168.008 922.107 173.01 934.441 174.29C946.256 175.453 955.475 174.29 966.381 171.847C989.752 166.729 1008.32 152.886 1021.69 130.784C1024.29 126.48 1026.63 122.176 1028.96 117.988C1035.07 106.821 1040.39 97.1658 1047.92 92.5128C1054.41 88.4414 1061.29 87.8597 1068.82 90.6516C1080.51 94.9556 1091.28 112.521 1102.58 131.133C1116.47 153.7 1132.05 179.292 1152.31 186.039C1155.94 187.318 1159.97 188.133 1163.99 188.482C1177.37 189.877 1189.44 185.224 1202.3 180.339C1213.59 176.035 1225.15 171.614 1237.74 171.614C1282.8 171.498 1390.3 171.731 1391.34 171.731C1391.86 171.731 1392.38 172.196 1392.38 172.661C1392.38 173.127 1391.99 173.592 1391.34 173.592C1390.3 173.592 1282.8 173.243 1237.74 173.476C1225.54 173.592 1214.11 177.896 1203.08 182.084C1190.61 186.853 1177.63 191.739 1163.73 190.343C1159.45 189.877 1155.42 189.063 1151.53 187.784C1130.63 180.804 1114.79 154.863 1100.76 132.064C1089.6 113.8 1078.95 96.4678 1067.91 92.3964C1061.03 89.8373 1054.93 90.4189 1048.96 94.1413C1041.95 98.5617 1036.75 107.984 1030.65 118.919C1028.31 123.106 1025.98 127.294 1023.38 131.715C1009.75 154.282 990.661 168.474 966.771 173.708C955.605 176.151 946.256 177.431 934.181 176.151C921.587 174.871 909.642 169.869 897.048 164.518C884.583 159.284 871.08 154.165 856.409 152.304C834.077 149.629 813.562 157.888 789.802 167.543C773.702 174.057 756.953 180.804 737.737 184.875C731.894 186.155 726.052 186.737 720.079 186.737C684.634 186.737 648.798 164.402 613.093 120.198C605.043 110.311 596.734 98.7944 588.684 87.7434C561.288 50.0538 532.983 11.0847 502.861 12.1316C473.777 13.0622 455.73 63.0823 439.76 107.286C436.384 116.825 433.138 125.782 429.892 133.925C423.141 150.792 414.701 165.216 406.132 174.406C392.11 189.18 379.515 194.182 367.57 194.182Z" fill="url(#paint15_linear)"/>
<path d="M1166.98 194.298C1165.29 194.298 1163.6 194.182 1161.92 194.066C1157.63 193.6 1153.48 192.553 1149.58 191.041C1129.2 183.131 1113.36 157.307 1099.46 134.507C1087.78 115.429 1076.74 97.5152 1065.58 94.0254C1058.44 91.8152 1052.46 92.6295 1046.49 96.7009C1040 101.121 1034.94 109.613 1029.22 119.384C1026.37 124.27 1023.38 129.388 1019.87 134.507C1004.68 156.958 983.26 169.172 956.254 170.8C946.776 171.382 935.74 170.451 921.587 167.892C911.2 166.031 900.813 162.192 888.998 157.656C887.44 157.074 885.752 156.492 884.064 155.794C867.835 149.862 854.851 146.837 841.867 146.256C819.535 145.092 798.761 153.235 776.689 161.843C759.29 168.59 741.373 175.57 720.988 178.827C683.984 184.76 645.682 163.123 604.134 112.754C597.253 104.495 590.242 95.4213 583.49 86.6969C555.315 50.1706 526.102 12.2483 495.071 14.2258C467.805 15.9707 450.017 62.1521 434.307 102.982C430.282 113.452 426.517 123.339 422.621 132.18C413.792 152.537 403.016 164.751 397.303 170.219C372.244 194.531 345.368 180.572 330.826 173.127C327.71 171.498 324.724 169.87 321.867 168.241L320.829 167.66C302.262 157.307 294.082 159.633 282.786 162.774C281.358 163.123 280.06 163.588 278.502 163.937C272.14 165.566 267.206 166.729 262.532 167.427C243.186 170.684 210.337 170.568 205.143 170.102C203.066 169.87 196.185 169.87 196.055 169.87H7.79029C7.1411 169.87 6.75158 169.405 6.75158 168.939C6.75158 168.358 7.27094 168.009 7.79029 168.009H196.055C196.314 168.009 203.066 168.009 205.403 168.241C210.337 168.707 243.316 168.707 262.142 165.566C266.686 164.751 271.62 163.705 277.982 162.076C279.411 161.727 280.839 161.262 282.137 160.913C293.433 157.772 302.392 155.213 321.867 166.031L322.906 166.613C325.763 168.241 328.749 169.87 331.865 171.498C351.081 181.502 373.543 190.227 395.615 168.939C401.198 163.588 411.845 151.49 420.544 131.482C424.439 122.642 428.204 112.754 432.229 102.285C448.199 60.8725 466.247 13.9932 494.941 12.2483C527.271 10.2708 556.744 48.542 585.308 85.5336C592.059 94.258 599.071 103.331 605.822 111.591C646.981 161.378 684.504 182.666 720.599 176.849C740.594 173.592 758.511 166.729 775.78 159.982C798.112 151.258 819.145 143.115 841.997 144.278C855.24 144.976 868.484 148.001 884.843 154.05C886.531 154.631 888.219 155.329 889.777 155.911C901.592 160.331 911.72 164.054 921.977 166.031C935.869 168.59 946.646 169.521 955.994 168.939C982.221 167.311 1003.13 155.445 1017.93 133.576C1021.43 128.458 1024.42 123.456 1027.28 118.57C1033.25 108.566 1038.31 99.958 1045.19 95.1886C1051.68 90.7683 1058.57 89.8376 1066.23 92.2805C1078.3 96.0029 1088.95 113.452 1101.28 133.692C1115.05 156.26 1130.76 181.735 1150.36 189.296C1154.13 190.692 1158.02 191.739 1162.05 192.204C1176.33 193.833 1189.05 187.784 1201.39 182.084C1212.16 176.966 1223.46 171.847 1235.53 171.731C1276.17 171.498 1389.78 171.847 1390.95 171.847C1391.6 171.847 1391.99 172.313 1391.99 172.778C1391.99 173.36 1391.47 173.709 1390.95 173.709C1389.78 173.709 1276.3 173.36 1235.53 173.592C1223.98 173.709 1213.46 178.594 1202.43 183.713C1191.39 188.831 1179.96 194.298 1166.98 194.298Z" fill="url(#paint16_linear)"/>
<path d="M1165.68 197.904C1163.99 197.904 1162.18 197.788 1160.36 197.555C1156.07 197.09 1151.92 195.927 1147.89 194.182C1128.03 185.457 1112.19 159.749 1098.3 136.949C1086.22 117.174 1074.8 98.4455 1063.37 95.6537C1056.1 93.7924 1050 94.9557 1044.15 99.2598C1038.18 103.68 1033.38 111.358 1027.79 120.198C1024.29 125.782 1020.78 131.482 1016.37 137.298C999.23 159.866 975.21 169.753 944.828 166.729C932.493 165.449 921.587 163.006 908.993 159.633C901.852 157.772 894.451 155.212 886.661 152.537C881.727 150.792 876.533 149.047 870.95 147.302C857.058 142.882 843.165 140.672 827.065 140.323C804.733 139.857 784.349 147.768 762.666 156.143C744.229 163.355 725.013 170.684 703.979 172.894C701.772 173.127 699.435 173.243 697.228 173.243C657.627 173.243 621.922 137.298 594.786 105.425C589.592 99.2598 584.269 92.8618 579.076 86.4639C549.602 50.5192 519.22 13.295 486.761 16.3194C461.313 18.7623 443.785 61.4539 428.334 99.1434C423.66 110.427 419.375 121.013 414.831 130.551C407.171 146.953 397.952 159.284 388.474 166.263C371.076 179.059 348.354 176.616 320.829 158.935C319.53 158.121 318.362 157.306 317.063 156.492C315.116 155.329 313.298 154.166 311.61 153.002C295.121 142.184 282.656 148.815 270.581 155.329C265.128 158.237 259.545 160.447 254.871 162.192C226.696 172.661 199.171 170.219 198.911 170.219C197.743 170.102 192.289 170.102 190.212 170.102C190.212 170.102 190.212 170.102 190.082 170.102H7.66035C7.01116 170.102 6.49182 169.637 6.49182 169.055C6.49182 168.474 7.01116 168.008 7.66035 168.008H190.342C191.121 168.008 197.872 168.008 199.43 168.125C199.69 168.125 226.567 170.451 254.222 160.214C258.896 158.47 264.349 156.376 269.673 153.584C281.747 147.07 295.51 139.741 313.298 151.374C315.116 152.537 316.933 153.7 318.751 154.863C320.05 155.678 321.218 156.492 322.517 157.306C349.393 174.639 370.686 177.082 387.305 164.751C396.524 157.888 405.353 145.906 413.013 129.737C417.428 120.315 421.842 109.613 426.387 98.4455C442.746 58.3131 459.755 16.9011 486.631 14.3419C520.389 11.2011 551.16 48.7743 581.023 85.3007C586.217 91.5823 591.41 98.0965 596.604 104.145C650.227 167.543 682.037 173.127 703.59 170.8C724.364 168.59 743.32 161.261 761.627 154.166C783.44 145.674 804.084 137.764 826.936 138.113C843.165 138.462 857.318 140.672 871.47 145.208C877.183 147.07 882.246 148.815 887.31 150.559C895.1 153.235 902.371 155.794 909.382 157.655C921.847 161.029 932.753 163.472 944.828 164.635C974.301 167.543 997.542 158.004 1014.16 136.135C1018.58 130.435 1022.08 124.619 1025.59 119.151C1031.3 110.078 1036.1 102.284 1042.47 97.6312C1048.83 92.9782 1055.84 91.6986 1063.76 93.6761C1076.09 96.8169 1087.26 114.964 1100.11 136.019C1113.88 158.47 1129.46 183.945 1148.67 192.437C1152.44 194.065 1156.46 195.229 1160.36 195.694C1175.55 197.555 1188.4 190.459 1200.74 183.48C1211.64 177.431 1221.9 171.731 1233.59 171.614C1269.94 171.382 1389.65 171.731 1390.82 171.731C1391.47 171.731 1391.99 172.196 1391.99 172.778C1391.99 173.359 1391.47 173.825 1390.82 173.825C1389.65 173.825 1270.07 173.476 1233.59 173.708C1222.55 173.825 1212.55 179.408 1201.91 185.341C1191 191.506 1179.31 197.904 1165.68 197.904Z" fill="url(#paint17_linear)"/>
<path d="M1164.25 201.626C1162.44 201.626 1160.62 201.51 1158.67 201.277C1154.52 200.696 1150.23 199.416 1146.08 197.439C1126.6 188.016 1110.89 162.192 1097 139.508C1084.4 118.919 1072.59 99.6086 1061.03 97.2821C1053.5 95.7698 1047.4 97.2821 1041.56 101.819C1035.97 106.239 1031.43 113.102 1026.11 121.129C1022.21 127.061 1017.93 133.692 1012.47 140.09C993.647 162.541 966.381 170.567 933.532 163.239C922.626 160.796 913.148 157.423 902.241 153.584C900.294 152.886 898.216 152.188 896.139 151.374C893.932 150.559 891.595 149.745 889.258 148.931C880.169 145.674 869.912 141.951 857.707 138.578C842.386 134.39 827.455 132.878 812.264 134.157C791.23 135.902 771.365 143.231 752.149 150.327C731.375 158.004 709.952 165.914 686.971 166.845C686.192 166.845 685.542 166.845 684.763 166.845C648.539 166.845 614.651 131.366 585.568 97.8637C582.581 94.4902 579.725 91.0005 576.739 87.627C545.578 51.4497 513.248 13.9928 478.841 18.4132C454.951 21.4376 438.591 59.2435 422.751 95.7699C417.558 107.635 412.754 118.919 407.69 128.923C398.991 145.79 389.123 157.306 378.996 162.425C351.341 176.267 325.503 155.794 311.61 144.743C308.624 142.417 305.767 140.206 303.041 138.345C286.811 126.829 274.736 136.833 263.051 146.604C258.507 150.443 253.443 153.816 247.73 157.19C220.334 172.778 194.237 170.335 193.198 170.218C192.679 170.218 188.394 170.218 184.759 170.102H7.66035C7.01116 170.102 6.49182 169.637 6.49182 169.055C6.49182 168.473 7.01116 168.008 7.66035 168.008H184.759C186.057 168.008 192.809 168.008 193.588 168.125C194.626 168.241 219.945 170.567 246.562 155.445C252.274 152.188 257.208 148.814 261.623 145.208C273.568 135.321 286.941 124.037 304.859 136.833C307.585 138.694 310.442 140.904 313.428 143.347C332.125 158.12 353.937 172.778 378.087 160.68C387.825 155.794 397.303 144.627 405.742 128.225C410.806 118.337 415.61 107.053 420.804 95.1882C436.903 58.0803 453.523 19.6928 478.841 16.4356C514.676 11.7826 547.395 49.8212 579.076 86.5801C582.062 90.0699 584.918 93.4433 587.905 96.8168C617.118 130.551 651.395 166.263 687.23 164.867C709.822 163.937 730.986 156.143 751.63 148.582C770.976 141.486 790.971 134.041 812.394 132.296C827.974 131.017 843.035 132.529 858.746 136.833C871.08 140.206 881.338 143.929 890.556 147.186C892.893 148 895.23 148.814 897.437 149.629C899.515 150.327 901.592 151.141 903.54 151.839C914.446 155.678 923.794 159.051 934.571 161.494C966.771 168.706 992.479 161.261 1010.92 139.159C1016.24 132.878 1020.52 126.247 1024.42 120.431C1029.74 112.288 1034.42 105.192 1040.39 100.539C1046.88 95.5372 1053.63 93.9086 1061.94 95.5372C1074.67 97.98 1086.22 116.941 1099.59 138.81C1113.36 161.261 1128.81 186.737 1147.63 195.81C1151.53 197.671 1155.42 198.835 1159.32 199.416C1175.55 201.51 1188.4 193.135 1200.74 185.108C1211.12 178.361 1220.99 171.847 1232.29 171.731C1264.36 171.498 1390.04 171.847 1391.34 171.847C1391.99 171.847 1392.51 172.312 1392.51 172.894C1392.51 173.475 1391.99 173.941 1391.34 173.941C1390.04 173.941 1264.49 173.592 1232.42 173.824C1221.9 173.941 1212.42 180.106 1202.3 186.737C1190.61 194.065 1178.8 201.626 1164.25 201.626Z" fill="url(#paint18_linear)"/>
<path d="M1162.83 205.349C1161.01 205.349 1159.06 205.232 1157.11 205C1132.05 201.394 1112.97 169.986 1095.96 142.184C1082.98 120.896 1070.77 100.772 1058.96 99.0268C1042.47 96.7003 1035.07 107.519 1024.94 122.408C1020.52 128.806 1015.59 136.135 1009.23 142.998C988.324 165.682 958.591 171.498 923.015 159.749C913.278 156.492 904.708 152.653 895.75 148.465C881.467 141.951 866.666 135.088 844.983 129.97C805.902 120.78 773.183 132.878 741.502 144.51C717.483 153.351 694.891 161.726 670.351 160.796C638.671 159.633 609.198 126.596 577.907 91.6983C543.89 53.6598 508.704 14.2253 471.181 20.3906C448.459 24.113 432.229 58.6618 416.519 92.0473C402.237 122.408 388.864 151.141 370.686 156.841C343.55 165.333 320.18 145.208 303.041 130.551C299.925 127.876 297.068 125.433 294.342 123.339C289.538 119.617 284.994 117.988 280.319 118.453C271.101 119.384 262.921 128.457 255.391 137.531C232.02 166.031 200.729 171.149 187.356 169.869H7.66043C6.88141 169.869 6.36206 169.404 6.36206 168.706C6.36206 168.008 6.88141 167.543 7.66043 167.543H187.485H187.615C200.469 168.822 230.721 163.82 253.443 136.135C261.363 126.596 269.932 117.057 280.19 116.127C285.513 115.545 290.966 117.406 296.16 121.478C298.886 123.572 301.743 126.131 304.859 128.806C321.478 142.998 344.329 162.541 369.907 154.514C386.916 149.163 400.159 120.896 414.182 91.0004C430.152 57.0332 446.641 21.9028 470.661 17.9478C509.742 11.5498 545.448 51.4496 579.855 90.0698C610.626 124.619 639.84 157.19 670.351 158.237C694.242 159.167 716.703 150.792 740.334 142.067C772.404 130.202 805.512 117.988 845.373 127.41C867.445 132.645 882.246 139.392 896.658 146.023C905.617 150.094 914.057 154.049 923.665 157.19C958.072 168.59 986.896 163.006 1007.02 141.137C1013.25 134.39 1018.19 127.178 1022.6 120.78C1032.99 105.657 1041.04 93.7922 1059.34 96.3514C1072.46 98.2126 1084.4 117.872 1098.3 140.672C1114.92 168.008 1133.74 198.951 1157.5 202.324C1174.64 204.767 1187.49 195.112 1199.96 185.806C1209.96 178.361 1219.43 171.265 1230.34 171.149C1258.13 170.8 1389.78 171.149 1391.21 171.149C1391.99 171.149 1392.51 171.73 1392.51 172.312C1392.51 173.01 1391.99 173.475 1391.21 173.475C1389.91 173.475 1258.26 173.126 1230.47 173.475C1220.47 173.592 1211.38 180.455 1201.78 187.667C1190.74 196.159 1178.41 205.349 1162.83 205.349Z" fill="url(#paint19_linear)"/>
<path d="M15.5805 169.055C15.5805 165.216 12.0749 162.076 7.79026 162.076C3.50562 162.076 0 165.216 0 169.055C0 172.894 3.50562 176.035 7.79026 176.035C12.0749 176.035 15.5805 172.894 15.5805 169.055Z" fill="url(#paint20_linear)"/>
<path d="M1399 172.777C1399 168.938 1395.49 165.797 1391.21 165.797C1386.93 165.797 1383.42 168.938 1383.42 172.777C1383.42 176.616 1386.93 179.756 1391.21 179.756C1395.49 179.756 1399 176.616 1399 172.777Z" fill="url(#paint21_linear)"/>
</g>
<defs>
<linearGradient id="paint0_linear" x1="699.305" y1="120.384" x2="699.305" y2="207.676" gradientUnits="userSpaceOnUse">
<stop stop-color="#5A78FF"/>
<stop offset="0.520833" stop-color="#00E482"/>
<stop offset="1" stop-color="#5A78FF"/>
</linearGradient>
<linearGradient id="paint1_linear" x1="699.37" y1="114.256" x2="699.37" y2="211.514" gradientUnits="userSpaceOnUse">
<stop stop-color="#5A78FF"/>
<stop offset="0.520833" stop-color="#00E482"/>
<stop offset="1" stop-color="#5A78FF"/>
</linearGradient>
<linearGradient id="paint2_linear" x1="699.5" y1="107.917" x2="699.5" y2="216.283" gradientUnits="userSpaceOnUse">
<stop stop-color="#5A78FF"/>
<stop offset="0.520833" stop-color="#00E482"/>
<stop offset="1" stop-color="#5A78FF"/>
</linearGradient>
<linearGradient id="paint3_linear" x1="699.37" y1="101.603" x2="699.37" y2="220.936" gradientUnits="userSpaceOnUse">
<stop stop-color="#5A78FF"/>
<stop offset="0.520833" stop-color="#00E482"/>
<stop offset="1" stop-color="#5A78FF"/>
</linearGradient>
<linearGradient id="paint4_linear" x1="699.305" y1="94.1455" x2="699.305" y2="225.822" gradientUnits="userSpaceOnUse">
<stop stop-color="#5A78FF"/>
<stop offset="0.520833" stop-color="#00E482"/>
<stop offset="1" stop-color="#5A78FF"/>
</linearGradient>
<linearGradient id="paint5_linear" x1="699.046" y1="86.5376" x2="699.046" y2="230.824" gradientUnits="userSpaceOnUse">
<stop stop-color="#5A78FF"/>
<stop offset="0.520833" stop-color="#00E482"/>
<stop offset="1" stop-color="#5A78FF"/>
</linearGradient>
<linearGradient id="paint6_linear" x1="699.175" y1="78.3901" x2="699.175" y2="235.942" gradientUnits="userSpaceOnUse">
<stop stop-color="#5A78FF"/>
<stop offset="0.520833" stop-color="#00E482"/>
<stop offset="1" stop-color="#5A78FF"/>
</linearGradient>
<linearGradient id="paint7_linear" x1="699.435" y1="69.4551" x2="699.435" y2="241.177" gradientUnits="userSpaceOnUse">
<stop stop-color="#5A78FF"/>
<stop offset="0.520833" stop-color="#00E482"/>
<stop offset="1" stop-color="#5A78FF"/>
</linearGradient>
<linearGradient id="paint8_linear" x1="699.11" y1="60.4912" x2="699.11" y2="247.111" gradientUnits="userSpaceOnUse">
<stop stop-color="#5A78FF"/>
<stop offset="0.520833" stop-color="#00E482"/>
<stop offset="1" stop-color="#5A78FF"/>
</linearGradient>
<linearGradient id="paint9_linear" x1="699.433" y1="48.751" x2="699.433" y2="252.926" gradientUnits="userSpaceOnUse">
<stop stop-color="#5A78FF"/>
<stop offset="0.520833" stop-color="#00E482"/>
<stop offset="1" stop-color="#5A78FF"/>
</linearGradient>
<linearGradient id="paint10_linear" x1="699.37" y1="0" x2="699.37" y2="258.277" gradientUnits="userSpaceOnUse">
<stop stop-color="#5A78FF"/>
<stop offset="0.520833" stop-color="#00E482"/>
<stop offset="1" stop-color="#5A78FF"/>
</linearGradient>
<linearGradient id="paint11_linear" x1="699.37" y1="2.15527" x2="699.37" y2="244.318" gradientUnits="userSpaceOnUse">
<stop stop-color="#5A78FF"/>
<stop offset="0.520833" stop-color="#00E482"/>
<stop offset="1" stop-color="#5A78FF"/>
</linearGradient>
<linearGradient id="paint12_linear" x1="699.435" y1="4.06836" x2="699.435" y2="230.591" gradientUnits="userSpaceOnUse">
<stop stop-color="#5A78FF"/>
<stop offset="0.520833" stop-color="#00E482"/>
<stop offset="1" stop-color="#5A78FF"/>
</linearGradient>
<linearGradient id="paint13_linear" x1="699.24" y1="6.08252" x2="699.24" y2="217.563" gradientUnits="userSpaceOnUse">
<stop stop-color="#5A78FF"/>
<stop offset="0.520833" stop-color="#00E482"/>
<stop offset="1" stop-color="#5A78FF"/>
</linearGradient>
<linearGradient id="paint14_linear" x1="699.37" y1="8.29248" x2="699.37" y2="205.116" gradientUnits="userSpaceOnUse">
<stop stop-color="#5A78FF"/>
<stop offset="0.520833" stop-color="#00E482"/>
<stop offset="1" stop-color="#5A78FF"/>
</linearGradient>
<linearGradient id="paint15_linear" x1="699.5" y1="10.25" x2="699.5" y2="194.182" gradientUnits="userSpaceOnUse">
<stop stop-color="#5A78FF"/>
<stop offset="0.520833" stop-color="#00E482"/>
<stop offset="1" stop-color="#5A78FF"/>
</linearGradient>
<linearGradient id="paint16_linear" x1="699.37" y1="12.1748" x2="699.37" y2="194.298" gradientUnits="userSpaceOnUse">
<stop stop-color="#5A78FF"/>
<stop offset="0.520833" stop-color="#00E482"/>
<stop offset="1" stop-color="#5A78FF"/>
</linearGradient>
<linearGradient id="paint17_linear" x1="699.24" y1="14.1577" x2="699.24" y2="197.904" gradientUnits="userSpaceOnUse">
<stop stop-color="#5A78FF"/>
<stop offset="0.520833" stop-color="#00E482"/>
<stop offset="1" stop-color="#5A78FF"/>
</linearGradient>
<linearGradient id="paint18_linear" x1="699.5" y1="16.0479" x2="699.5" y2="201.626" gradientUnits="userSpaceOnUse">
<stop stop-color="#5A78FF"/>
<stop offset="0.520833" stop-color="#00E482"/>
<stop offset="1" stop-color="#5A78FF"/>
</linearGradient>
<linearGradient id="paint19_linear" x1="699.435" y1="17.2681" x2="699.435" y2="205.349" gradientUnits="userSpaceOnUse">
<stop stop-color="#5A78FF"/>
<stop offset="0.520833" stop-color="#00E482"/>
<stop offset="1" stop-color="#5A78FF"/>
</linearGradient>
<linearGradient id="paint20_linear" x1="7.79026" y1="162.076" x2="7.79026" y2="176.035" gradientUnits="userSpaceOnUse">
<stop stop-color="#5A78FF"/>
<stop offset="0.520833" stop-color="#00E482"/>
<stop offset="1" stop-color="#5A78FF"/>
</linearGradient>
<linearGradient id="paint21_linear" x1="1391.21" y1="165.797" x2="1391.21" y2="179.756" gradientUnits="userSpaceOnUse">
<stop stop-color="#5A78FF"/>
<stop offset="0.520833" stop-color="#00E482"/>
<stop offset="1" stop-color="#5A78FF"/>
</linearGradient>
</defs>
</svg>
