<svg width="40" height="40" viewBox="0 0 40 40" fill="none" xmlns="http://www.w3.org/2000/svg">
<g clip-path="url(#clip0)">
<path d="M32.8445 39.313C24.2898 40.2271 15.7117 40.2271 7.15698 39.313C3.74292 38.9458 1.04761 36.2583 0.688232 32.8442C-0.22583 24.2896 -0.22583 15.7114 0.688232 7.15674C1.05542 3.74268 3.75073 1.04736 7.15698 0.687988C15.7117 -0.226074 24.2898 -0.226074 32.8445 0.687988C36.2585 1.05518 38.9539 3.75049 39.3132 7.15674C40.2273 15.7114 40.2273 24.2896 39.3132 32.8442C38.9539 36.2583 36.2585 38.9536 32.8445 39.313Z" fill="#FFFCF8"/>
<path d="M31.4375 37.2031C23.8203 38.0156 16.1719 38.0156 8.55469 37.2031C5.52344 36.875 3.125 34.4766 2.79688 31.4375C1.98437 23.8203 1.98437 16.1719 2.79688 8.55469C3.125 5.52344 5.52344 3.125 8.5625 2.79688C16.1797 1.98438 23.8281 1.98438 31.4453 2.79688C34.4844 3.125 36.8828 5.52344 37.2109 8.5625C38.0234 16.1797 38.0234 23.8281 37.2109 31.4453C36.875 34.4766 34.4766 36.875 31.4375 37.2031Z" fill="url(#paint0_linear)"/>
<path d="M46.5156 30.3125C46.4922 30.3125 23.7656 7.57812 23.7656 7.57812H19.9453V19.125L17.5391 16.7031C17.1797 16.6484 16.8125 16.6172 16.4375 16.6172C14.4766 16.6172 12.6406 17.3828 11.2578 18.7656C9.875 20.1484 9.10938 21.9922 9.10938 23.9453C9.10938 25.8984 9.875 27.7422 11.2578 29.125L28.0312 45.8984C23.7656 40.2985 30.5842 54.6269 32.5373 54.6269C32.9123 54.6269 33.9453 48.0156 34.3047 47.9688C25.9701 40.2985 24.8529 41.4157 25.9701 40.2985C27.3451 38.9235 36.7086 39.5573 36.7164 37.6119L39.1045 32.2388C39.7685 32.7544 41.9297 33.0469 42.7031 33.375C43.914 33.8828 45.1953 34.1484 46.5156 34.1484C46.5156 34.1406 46.5156 30.3125 46.5156 30.3125Z" fill="url(#paint1_linear)"/>
<path d="M32.8445 39.3135C24.2898 40.2275 15.7117 40.2275 7.15698 39.3135C3.74292 38.9463 1.04761 36.2588 0.688232 32.8447C-0.22583 24.29 -0.22583 15.7119 0.688232 7.15723C1.05542 3.74316 3.75073 1.04785 7.15698 0.688477C15.7117 -0.225586 24.2898 -0.225586 32.8445 0.688477C36.2585 1.05566 38.9539 3.75098 39.3132 7.15723C40.2273 15.7119 40.2273 24.29 39.3132 32.8447C38.9539 36.2588 36.2585 38.9541 32.8445 39.3135Z" fill="url(#paint2_linear)"/>
<path d="M26.1406 12.3281C25.3828 11.3281 24.9297 10.0859 24.9297 8.73438H24.9141V8.72656H23.8906C24.1797 10.1875 24.9922 11.4609 26.1406 12.3281Z" fill="#F00044"/>
<path d="M16.4375 20.4453C14.5 20.4453 12.9375 22.0156 12.9375 23.9453C12.9375 25.2031 13.6016 26.3125 14.6016 26.9297C14.2734 26.3984 14.0859 25.7656 14.0859 25.0938C14.0859 23.1563 15.6562 21.5937 17.5859 21.5937C17.9687 21.5937 18.3437 21.6563 18.6875 21.7734V17.8516C18.3281 17.7969 17.9609 17.7656 17.5859 17.7656C17.5703 17.7656 17.5547 17.7656 17.5391 17.7656V20.625C17.1875 20.5078 16.8203 20.4453 16.4375 20.4453Z" fill="#F00044"/>
<path d="M30.8906 14.6875C30.5 14.6875 30.1172 14.6484 29.75 14.5781V17.3672C28.4297 17.3672 27.1484 17.1094 25.9375 16.5937C25.1563 16.2656 24.4375 15.8437 23.7734 15.3281V23.9766H23.7656C23.7578 25.9219 23 27.75 21.6172 29.125C20.5 30.2422 19.0781 30.9609 17.5391 31.1875C17.1797 31.2422 16.8125 31.2656 16.4375 31.2656C14.75 31.2656 13.1563 30.7031 11.8594 29.6641C12.0313 29.875 12.2109 30.0781 12.3984 30.2734C13.7812 31.6641 15.625 32.4219 17.5781 32.4219C17.9531 32.4219 18.3203 32.3906 18.6797 32.3438C20.2188 32.1094 21.6406 31.3984 22.7578 30.2812C24.1328 28.9062 24.8984 27.0781 24.9063 25.1328H24.9141V16.4766C25.5781 16.9922 26.3047 17.4141 27.0781 17.7422C28.2891 18.2578 29.5703 18.5156 30.8906 18.5156V14.6875Z" fill="url(#paint3_linear)"/>
<path d="M29.7422 14.5781V13.5391C28.3906 13.5391 27.1406 13.0859 26.1406 12.3281C27.0078 13.4687 28.2813 14.2891 29.7422 14.5781Z" fill="#08FFF9"/>
<path d="M17.5781 28.5938C17.9609 28.5938 18.3359 28.5312 18.6797 28.4141C20.0703 27.9531 21.0781 26.6406 21.0781 25.0938L21.0859 19.2969V8.72656H23.8906C23.8203 8.35937 23.7813 7.97656 23.7813 7.58594H23.7656V7.57812H19.9453V18.1562L19.9375 23.9531C19.9375 25.5 18.9297 26.8125 17.5391 27.2734C17.1953 27.3906 16.8203 27.4531 16.4375 27.4531C15.7656 27.4531 15.1328 27.2656 14.6016 26.9375C15.2188 27.9297 16.3203 28.5938 17.5781 28.5938Z" fill="url(#paint4_linear)"/>
<path d="M12.3984 19.9141C13.7734 18.5391 15.5938 17.7813 17.5312 17.7656V16.7031C17.1719 16.6484 16.8047 16.6172 16.4297 16.6172C14.4688 16.6172 12.6328 17.3828 11.25 18.7656C9.86719 20.1484 9.10156 21.9922 9.10156 23.9453C9.10156 25.8984 9.86719 27.7422 11.25 29.125C11.4453 29.3203 11.6484 29.5 11.8594 29.6641C10.8203 28.3672 10.2578 26.7734 10.2578 25.0859C10.2578 23.1406 11.0156 21.2969 12.3984 19.9141Z" fill="#08FFF9"/>
<path d="M17.5312 31.1953C19.0703 30.9609 20.4922 30.25 21.6094 29.1328C22.9844 27.7578 23.75 25.9297 23.7578 23.9844H23.7656V15.3281C24.4297 15.8438 25.1562 16.2656 25.9297 16.5938C27.1406 17.1094 28.4219 17.3672 29.7422 17.3672V14.5781C28.2812 14.2969 27.0078 13.4766 26.1328 12.3281C24.9922 11.4609 24.1719 10.1875 23.8828 8.72656H21.0781V19.3047L21.0703 25.1016C21.0703 26.6484 20.0625 27.9609 18.6719 28.4219C18.3281 28.5391 17.9531 28.6016 17.5703 28.6016C16.3125 28.6016 15.2031 27.9375 14.5859 26.9375C13.5859 26.3203 12.9219 25.2188 12.9219 23.9531C12.9219 22.0156 14.4922 20.4531 16.4219 20.4531C16.8047 20.4531 17.1797 20.5156 17.5234 20.6328V17.7813C15.5859 17.7891 13.7656 18.5547 12.3906 19.9297C11.0078 21.3125 10.2422 23.1562 10.2422 25.1094C10.2422 26.7891 10.8047 28.3906 11.8437 29.6875C13.1406 30.7266 14.7344 31.2891 16.4219 31.2891C16.8047 31.2734 17.1719 31.25 17.5312 31.1953Z" fill="black"/>
</g>
<defs>
<linearGradient id="paint0_linear" x1="4.66078" y1="4.66094" x2="35.3391" y2="35.3393" gradientUnits="userSpaceOnUse">
<stop stop-color="#E8EBEE"/>
<stop offset="1" stop-color="#E8EBEE" stop-opacity="0"/>
</linearGradient>
<linearGradient id="paint1_linear" x1="13.3402" y1="14.1777" x2="41.7254" y2="42.5629" gradientUnits="userSpaceOnUse">
<stop stop-color="#B7C1CE"/>
<stop offset="1" stop-color="#B8C1CF" stop-opacity="0"/>
</linearGradient>
<linearGradient id="paint2_linear" x1="20.0011" y1="32.5071" x2="20.0011" y2="39.265" gradientUnits="userSpaceOnUse">
<stop stop-color="#94A1B2" stop-opacity="0"/>
<stop offset="1" stop-color="#94A1B2"/>
</linearGradient>
<linearGradient id="paint3_linear" x1="19.1277" y1="19.9645" x2="26.1008" y2="26.9375" gradientUnits="userSpaceOnUse">
<stop stop-color="#F00044"/>
<stop offset="1" stop-color="#C70038"/>
</linearGradient>
<linearGradient id="paint4_linear" x1="14.6909" y1="12.827" x2="24.7459" y2="22.882" gradientUnits="userSpaceOnUse">
<stop stop-color="#08FFF9"/>
<stop offset="1" stop-color="#07D4CF"/>
</linearGradient>
<clipPath id="clip0">
<rect width="40" height="40" fill="white"/>
</clipPath>
</defs>
</svg>
