<svg width="43" height="44" viewBox="0 0 43 44" fill="none" xmlns="http://www.w3.org/2000/svg">
<g clip-path="url(#clip0)">
<path d="M35.1641 42.2998C26.0639 43.2711 16.9361 43.2711 7.83586 42.2998C4.2072 41.9126 1.34108 39.0464 0.953801 35.4175C-0.017478 26.3172 -0.017478 17.1897 0.953801 8.08952C1.34108 4.46086 4.2072 1.59474 7.83586 1.20746C16.9361 0.236184 26.0636 0.236184 35.1638 1.20746C38.7928 1.59474 41.6589 4.46086 42.0462 8.08952C43.0175 17.1897 43.0175 26.3172 42.0462 35.4175C41.6589 39.0464 38.7931 41.9126 35.1641 42.2998Z" fill="url(#paint0_linear)"/>
<path d="M39.7319 9.62883C39.3885 6.40887 36.8453 3.86543 33.6251 3.52166C25.5497 2.6601 17.4503 2.6601 9.3749 3.52166C6.15494 3.86543 3.6115 6.40887 3.26772 9.62883C2.40616 17.7042 2.40616 25.8036 3.26772 33.8787C3.6115 37.099 6.15494 39.6424 9.3749 39.9859C17.4503 40.8477 25.5497 40.8477 33.6247 39.9859C36.845 39.6424 39.3885 37.099 39.7319 33.8787C40.5938 25.8036 40.5938 17.7042 39.7319 9.62883Z" fill="url(#paint1_linear)"/>
<path d="M0.862915 34.5356C0.892131 34.8298 0.922321 35.1239 0.95381 35.418C1.34109 39.0466 4.20721 41.9128 7.83619 42.3C16.9364 43.2713 26.0639 43.2713 35.1641 42.3C38.7931 41.9128 41.6589 39.0466 42.0462 35.418C42.0777 35.1239 42.1079 34.8298 42.1374 34.5356H0.862915Z" fill="url(#paint2_linear)"/>
<path d="M42.7655 20.2583L33.9335 11.4266C32.9437 11.9924 32.0714 12.3063 31.4144 12.4803C31.0449 12.5793 30.7434 12.6332 30.5265 12.6628C29.5306 11.6418 28.1399 11.0078 26.6005 11.0078C23.5717 11.0078 21.1159 13.4633 21.1159 16.4927C21.1159 16.6021 21.1189 16.7102 21.126 16.818C21.1406 17.0806 21.1741 17.3387 21.2257 17.5896C19.9613 17.5708 15.8515 17.2332 11.932 13.8733C11.9316 13.8733 11.9316 13.873 11.9316 13.873H11.9313L10.0829 12.0242C10.0829 12.0242 7.91441 15.809 11.1026 18.681C11.2425 18.8371 11.3963 18.9913 11.5648 19.1429C11.5781 19.1579 11.5921 19.1725 11.6054 19.1874C11.187 19.1592 9.92839 19.0339 9.19993 18.5193C9.19993 18.5193 9.05352 20.8326 10.9808 22.5356L12.5371 24.1051C12.0631 24.1444 11.5389 24.135 11.1743 23.9753C11.1743 23.9753 11.497 25.3455 12.7442 26.4421L14.9244 28.6337C13.6165 29.3956 11.3269 30.349 8.31305 30.1055L21.5386 43.0282C26.0827 43.0269 30.6268 42.7841 35.1641 42.2998C38.7931 41.9125 41.6592 39.0464 42.0465 35.4177C42.585 30.3698 42.8243 25.3134 42.7655 20.2583Z" fill="url(#paint3_linear)"/>
<path d="M34.6873 13.5568C33.7458 14.0492 32.3279 14.2768 31.8578 14.3424C31.8539 14.3196 31.85 14.2979 31.8461 14.2761C33.4443 13.2877 33.9335 11.4266 33.9335 11.4266C32.9437 11.9924 32.0714 12.3063 31.4144 12.4803C31.045 12.5793 30.7434 12.6329 30.5265 12.6628C29.5306 11.6415 28.1399 11.0078 26.6005 11.0078C23.5718 11.0078 21.116 13.463 21.116 16.4927C21.116 16.6018 21.1189 16.7102 21.126 16.8176C21.1406 17.0803 21.1741 17.3383 21.2257 17.5893C19.7597 17.5675 14.468 17.1179 10.0829 12.0242C10.0829 12.0242 7.64109 16.2846 11.7463 19.1949C11.7463 19.1949 10.0829 19.1429 9.19995 18.5193C9.19995 18.5193 8.94024 22.6245 13.6684 23.923C13.6684 23.923 12.006 24.3392 11.174 23.9753C11.174 23.9753 12.0057 27.5085 16.1625 27.7689C16.1625 27.7689 13.1812 30.4983 8.31274 30.1055C10.7072 31.6215 13.546 32.499 16.5897 32.499C25.1478 32.499 32.0857 25.5614 32.0857 17.0033C32.0857 16.8965 32.0847 16.7897 32.0825 16.6829C32.0847 16.6196 32.0857 16.5566 32.0857 16.4927C32.0857 16.4482 32.0847 16.4037 32.0841 16.3593C33.6663 15.3049 34.6873 13.5568 34.6873 13.5568Z" fill="white"/>
</g>
<defs>
<linearGradient id="paint0_linear" x1="14.3525" y1="6.46135" x2="25.1145" y2="29.4869" gradientUnits="userSpaceOnUse">
<stop stop-color="#00C3FF"/>
<stop offset="1" stop-color="#00B0ED"/>
</linearGradient>
<linearGradient id="paint1_linear" x1="30.4987" y1="26.5812" x2="-31.3199" y2="-6.58061" gradientUnits="userSpaceOnUse">
<stop stop-color="#00B0ED" stop-opacity="0"/>
<stop offset="1" stop-color="#00A2CE"/>
</linearGradient>
<linearGradient id="paint2_linear" x1="21.5" y1="36.8275" x2="21.5" y2="42.4029" gradientUnits="userSpaceOnUse">
<stop stop-color="#00B0ED" stop-opacity="0"/>
<stop offset="1" stop-color="#00A2CE"/>
</linearGradient>
<linearGradient id="paint3_linear" x1="40.8982" y1="40.5411" x2="20.1116" y2="19.7545" gradientUnits="userSpaceOnUse">
<stop stop-color="#00B0ED" stop-opacity="0"/>
<stop offset="1" stop-color="#00A2CE"/>
</linearGradient>
<clipPath id="clip0">
<rect width="42.5493" height="42.5493" fill="white" transform="translate(0.225342 0.479004)"/>
</clipPath>
</defs>
</svg>
