<svg width="52" height="52" viewBox="0 0 52 52" fill="none" xmlns="http://www.w3.org/2000/svg">
<path d="M42.6991 51.1097C31.5776 52.2968 20.4224 52.2968 9.3009 51.1097C4.86627 50.6364 1.36356 47.1337 0.890259 42.6987C-0.296753 31.5772 -0.296753 20.4224 0.890259 9.3009C1.36356 4.86627 4.86627 1.36356 9.3009 0.890259C20.4224 -0.296753 31.5772 -0.296753 42.6987 0.890259C47.1337 1.36356 50.6364 4.86627 51.1097 9.3009C52.2968 20.4224 52.2968 31.5772 51.1097 42.6987C50.6364 47.1337 47.1341 50.6364 42.6991 51.1097Z" fill="url(#paint0_linear)"/>
<path d="M48.2815 11.1816C47.8617 7.24641 44.7538 4.13805 40.8182 3.71791C30.9492 2.66499 21.0508 2.66499 11.1818 3.71791C7.24664 4.13805 4.13828 7.24641 3.71814 11.1816C2.66522 21.0506 2.66522 30.949 3.71814 40.8176C4.13828 44.7531 7.24664 47.8615 11.1818 48.2812C21.0508 49.3345 30.9492 49.3345 40.8178 48.2812C44.7534 47.8615 47.8617 44.7531 48.2815 40.8176C49.3348 30.949 49.3348 21.0506 48.2815 11.1816Z" fill="url(#paint1_linear)"/>
<path d="M0.779175 41.6206C0.81488 41.98 0.851776 42.3395 0.890259 42.6989C1.36356 47.1335 4.86627 50.6363 9.3013 51.1096C20.4228 52.2966 31.5776 52.2966 42.6991 51.1096C47.1341 50.6363 50.6364 47.1335 51.1097 42.6989C51.1482 42.3395 51.1851 41.98 51.2212 41.6206H0.779175Z" fill="url(#paint2_linear)"/>
<path fill-rule="evenodd" clip-rule="evenodd" d="M37.3691 14.5677C34.3524 11.549 30.443 10.0894 26.1691 10.0874C17.3625 10.0874 10.2975 17.15 10.294 25.9565C10.2928 28.7717 11.2322 31.4175 12.6303 33.8395L9.95557 42.1161L19.7135 51.8736C27.3767 52.1811 35.0455 51.9264 42.6992 51.1095C47.1342 50.6362 50.6365 47.1335 51.1098 42.6985C51.591 38.192 51.8767 33.6797 51.9679 29.1665L37.3691 14.5677Z" fill="url(#paint3_linear)"/>
<path d="M10.5113 41.5585L12.6997 33.5684C11.3496 31.2301 10.6399 28.5771 10.6407 25.86C10.6442 17.3585 17.5632 10.4419 26.0647 10.4419C30.1906 10.4439 34.0635 12.0494 36.9751 14.9638C39.8875 17.8786 41.4903 21.7522 41.4887 25.8723C41.4851 34.3737 34.5654 41.2911 26.0651 41.2911C26.0647 41.2911 26.0655 41.2911 26.0651 41.2911H26.0583C23.4772 41.2903 20.9409 40.6425 18.6879 39.4146L10.5113 41.5585Z" fill="url(#paint4_linear)"/>
<path fill-rule="evenodd" clip-rule="evenodd" d="M37.369 14.568C34.3523 11.5493 30.341 9.88577 26.067 9.88379C17.2605 9.88379 10.0936 17.0483 10.09 25.8549C10.0888 28.6701 10.8243 31.4178 12.2224 33.8398L9.95551 42.1164L18.4253 39.8955C20.7592 41.1682 23.3864 41.8387 26.0603 41.8399H26.067C34.8724 41.8399 42.0405 34.6738 42.0441 25.8676C42.0457 21.6 40.3854 17.5871 37.369 14.568ZM26.067 39.1425H26.0619C23.6787 39.1409 21.3416 38.501 19.3032 37.2914L18.818 37.0038L13.7919 38.3217L15.1336 33.4229L14.8174 32.9206C13.488 30.8069 12.7862 28.3642 12.7874 25.8561C12.7901 18.5364 18.747 12.5815 26.0722 12.5815C29.6194 12.5827 32.9531 13.9657 35.4608 16.4746C37.9681 18.9839 39.3475 22.3192 39.3467 25.8668C39.3436 33.1864 33.3863 39.1425 26.067 39.1425Z" fill="white"/>
<path fill-rule="evenodd" clip-rule="evenodd" d="M33.351 29.1998C32.9519 29.0002 30.9893 28.0342 30.6231 27.9009C30.2573 27.768 29.9911 27.7014 29.7249 28.1013C29.4587 28.5004 28.6938 29.3994 28.4609 29.6656C28.228 29.9322 27.9952 29.9655 27.596 29.7659C27.1969 29.5656 25.9111 29.1447 24.3857 27.7847C23.1991 26.7266 22.3977 25.4198 22.1648 25.0203C21.9319 24.6208 22.1398 24.4045 22.3402 24.2054C22.5191 24.0269 22.7393 23.7396 22.9388 23.5064C23.138 23.2735 23.2047 23.1068 23.338 22.8406C23.4709 22.574 23.4042 22.3412 23.3046 22.1416C23.2047 21.9417 22.4291 19.9675 22.074 19.178C21.7748 18.5135 21.4598 18.5 21.1754 18.4885C20.9429 18.4786 20.6763 18.479 20.4105 18.479C20.1443 18.479 19.7119 18.579 19.3461 18.9785C18.9799 19.378 17.9484 20.3436 17.9484 22.3078C17.9484 24.272 19.3794 26.17 19.5786 26.4366C19.7785 26.7028 22.3406 30.8621 26.3983 32.4625C29.7705 33.7923 30.4569 33.5277 31.1888 33.4611C31.9208 33.3944 33.5505 32.4958 33.8834 31.5635C34.2159 30.6316 34.2159 29.8326 34.1163 29.6656C34.0163 29.4993 33.7501 29.3994 33.351 29.1998Z" fill="white"/>
<defs>
<linearGradient id="paint0_linear" x1="11.8292" y1="-1.3005" x2="49.298" y2="70.8842" gradientUnits="userSpaceOnUse">
<stop stop-color="#FFFCF8"/>
<stop offset="0.1875" stop-color="#FAF8F6"/>
<stop offset="0.4041" stop-color="#ECEEF2"/>
<stop offset="0.6353" stop-color="#D5DCEA"/>
<stop offset="0.875" stop-color="#B5C4DF"/>
<stop offset="1" stop-color="#A1B5D8"/>
</linearGradient>
<linearGradient id="paint1_linear" x1="19.9441" y1="22.5933" x2="-68.1501" y2="-26.9596" gradientUnits="userSpaceOnUse">
<stop stop-color="#A1B5D8" stop-opacity="0"/>
<stop offset="0.3094" stop-color="#90A2BD" stop-opacity="0.309804"/>
<stop offset="0.7554" stop-color="#7C8B9C" stop-opacity="0.756863"/>
<stop offset="1" stop-color="#748290"/>
</linearGradient>
<linearGradient id="paint2_linear" x1="26" y1="45.9026" x2="26" y2="54.0081" gradientUnits="userSpaceOnUse">
<stop stop-color="#A1B5D8" stop-opacity="0"/>
<stop offset="0.3094" stop-color="#90A2BD" stop-opacity="0.309804"/>
<stop offset="0.7554" stop-color="#7C8B9C" stop-opacity="0.756863"/>
<stop offset="1" stop-color="#748290"/>
</linearGradient>
<linearGradient id="paint3_linear" x1="34.4504" y1="41.3744" x2="14.8133" y2="9.10248" gradientUnits="userSpaceOnUse">
<stop stop-color="#A1B5D8" stop-opacity="0"/>
<stop offset="0.3094" stop-color="#90A2BD" stop-opacity="0.309804"/>
<stop offset="0.7554" stop-color="#7C8B9C" stop-opacity="0.756863"/>
<stop offset="1" stop-color="#748290"/>
</linearGradient>
<linearGradient id="paint4_linear" x1="25.9999" y1="41.5586" x2="25.9999" y2="10.4419" gradientUnits="userSpaceOnUse">
<stop stop-color="#20B038"/>
<stop offset="1" stop-color="#60D66A"/>
</linearGradient>
</defs>
</svg>
