<svg width="20" height="20" viewBox="0 0 20 20" fill="none" xmlns="http://www.w3.org/2000/svg">
<g clip-path="url(#clip0)">
<path d="M15.772 8.94533L14.8934 7.94533C14.6507 7.66933 14.2307 7.64267 13.9534 7.884L11.3334 10.18V0.666667C11.3334 0.298667 11.0347 0 10.6667 0H9.33337C8.96537 0 8.6667 0.298667 8.6667 0.666667V10.18L6.0467 7.884C5.7707 7.64267 5.3507 7.66933 5.1067 7.94533L4.22803 8.944C3.98403 9.22133 4.01203 9.644 4.28937 9.88667L9.56137 14.5013C9.81337 14.7213 10.188 14.7213 10.44 14.5013L15.7107 9.88667C15.988 9.644 16.016 9.22133 15.772 8.94533Z" fill="#B0B4D2"/>
<path d="M17.3333 17.3334H2.66668C2.29868 17.3334 2.00002 17.632 2.00002 18V19.3334C2.00002 19.7014 2.29868 20 2.66668 20H17.3333C17.7013 20 18 19.7014 18 19.3334V18C18 17.632 17.7013 17.3334 17.3333 17.3334Z" fill="#B0B4D2"/>
</g>
<defs>
<clipPath id="clip0">
<rect width="20" height="20" fill="white"/>
</clipPath>
</defs>
</svg>
