<svg width="16" height="17" viewBox="0 0 16 17" fill="none" xmlns="http://www.w3.org/2000/svg">
<g clip-path="url(#clip0)">
<path d="M15.36 0.873047H0.64C0.286 0.873047 0 1.14747 0 1.48715V15.6115C0 15.9512 0.286 16.2256 0.64 16.2256H15.36C15.714 16.2256 16 15.9512 16 15.6115V1.48715C16 1.14747 15.714 0.873047 15.36 0.873047ZM13.512 5.35409H12.234C11.232 5.35409 11.038 5.81083 11.038 6.4825V7.96211H13.43L13.118 10.2784H11.038V16.2256H8.544V10.2804H6.458V7.96211H8.544V6.25413C8.544 4.27173 9.806 3.19129 11.65 3.19129C12.534 3.19129 13.292 3.25462 13.514 3.28341V5.35409H13.512Z" fill="#F2F2F2"/>
</g>
<defs>
<clipPath id="clip0">
<rect width="16" height="15.3526" fill="white" transform="translate(0 0.873047)"/>
</clipPath>
</defs>
</svg>
