<svg width="21" height="21" viewBox="0 0 21 21" fill="none" xmlns="http://www.w3.org/2000/svg">
<path d="M4.58356 0.335878C3.76198 -0.118222 2.79735 -0.107722 1.98102 0.34244L11.5486 9.1685L14.7627 5.95437L4.58356 0.335878Z" fill="#00EF77"/>
<path d="M1.02428 1.24537C0.790667 1.62728 0.656799 2.06432 0.656799 2.52761V18.4683C0.656799 18.9172 0.778855 19.345 0.999342 19.7191L10.6207 10.0977L1.02428 1.24537Z" fill="#00CEFF"/>
<path d="M19.0242 8.30625L15.9584 6.61453L12.5132 10.0583L16.7353 13.9523L19.0255 12.6885C19.8497 12.2317 20.3432 11.4128 20.3432 10.4967C20.3419 9.58062 19.8497 8.76167 19.0242 8.30625Z" fill="#FFCA01"/>
<path d="M11.5854 10.9876L1.93774 20.6352C2.35641 20.8741 2.81576 21.0001 3.27773 21.0001C3.72396 21.0001 4.17281 20.8872 4.58359 20.6602L15.5253 14.6217L11.5854 10.9876Z" fill="#FB3745"/>
</svg>
