<svg width="16" height="17" viewBox="0 0 16 17" fill="none" xmlns="http://www.w3.org/2000/svg">
<g clip-path="url(#clip0)">
<path d="M14.5 0.873047L-3.25441e-05 2.31235C-3.25441e-05 1.52073 -0.825033 2.31235 -3.25441e-05 2.31235V14.7863C-3.25441e-05 15.578 0.674967 16.2256 1.49997 16.2256H14.5C15.325 16.2256 16 15.578 16 14.7863V2.31235C16 1.52073 15.325 0.873047 14.5 0.873047ZM11 3.27189C11 3.00802 11.225 2.79212 11.5 2.79212H13.5C13.775 2.79212 14 3.00802 14 3.27189V5.19097C14 5.45484 13.775 5.67073 13.5 5.67073H11.5C11.3674 5.67048 11.2404 5.61985 11.1467 5.52993C11.053 5.44001 11.0002 5.31813 11 5.19097V3.27189ZM7.99997 5.67073C8.78221 5.69012 9.52562 6.0019 10.0717 6.53963C10.6179 7.07737 10.9235 7.79851 10.9235 8.54935C10.9235 9.30019 10.6179 10.0213 10.0717 10.5591C9.52562 11.0968 8.78221 11.4086 7.99997 11.428C7.21773 11.4086 6.47431 11.0968 5.92819 10.5591C5.38207 10.0213 5.07643 9.30019 5.07643 8.54935C5.07643 7.79851 5.38207 7.07737 5.92819 6.53963C6.47431 6.0019 7.21773 5.69012 7.99997 5.67073ZM14 13.8268C14 14.0907 13.775 14.3066 13.5 14.3066H2.49997C2.36744 14.3063 2.24042 14.2557 2.14671 14.1658C2.05299 14.0759 2.00023 13.954 1.99997 13.8268V7.58981H3.09997C2.95147 8.28697 2.96649 9.0071 3.14392 9.698C3.32136 10.3889 3.65676 11.0333 4.12584 11.5844C4.59491 12.1355 5.18589 12.5796 5.85596 12.8845C6.52603 13.1894 7.25839 13.3474 7.99997 13.347C8.74154 13.3474 9.47391 13.1894 10.144 12.8845C10.814 12.5796 11.405 12.1355 11.8741 11.5844C12.3432 11.0333 12.6786 10.3889 12.856 9.698C13.0334 9.0071 13.0485 8.28697 12.9 7.58981H14V13.8268Z" fill="#F2F2F2"/>
</g>
<defs>
<clipPath id="clip0">
<rect width="16" height="15.3526" fill="white" transform="translate(0 0.873047)"/>
</clipPath>
</defs>
</svg>
