<svg width="16" height="17" viewBox="0 0 16 17" fill="none" xmlns="http://www.w3.org/2000/svg">
<g clip-path="url(#clip0)">
<path fill-rule="evenodd" clip-rule="evenodd" d="M1.97862e-07 2.15569C1.97862e-07 1.81551 0.140834 1.48927 0.391519 1.24873C0.642204 1.00818 0.982205 0.873049 1.33673 0.873049H14.6618C14.8375 0.872773 15.0115 0.905752 15.1739 0.970096C15.3363 1.03444 15.4839 1.12889 15.6082 1.24803C15.7325 1.36717 15.8311 1.50866 15.8983 1.66441C15.9655 1.82016 16.0001 1.98711 16 2.15569V14.9416C16.0002 15.1102 15.9657 15.2772 15.8986 15.433C15.8315 15.5889 15.733 15.7305 15.6087 15.8497C15.4845 15.969 15.337 16.0636 15.1746 16.1281C15.0123 16.1926 14.8383 16.2257 14.6625 16.2256H1.33673C1.16112 16.2256 0.987243 16.1924 0.825016 16.1279C0.662789 16.0634 0.515397 15.9689 0.391261 15.8497C0.267125 15.7305 0.168678 15.5891 0.101544 15.4334C0.0344096 15.2777 -9.53423e-05 15.1108 1.97862e-07 14.9423V2.15569ZM6.33309 6.72658H8.49964V7.77055C8.81236 7.17041 9.61236 6.63027 10.8145 6.63027C13.1193 6.63027 13.6655 7.82568 13.6655 10.019V14.0819H11.3331V10.5187C11.3331 9.26953 11.0204 8.5647 10.2262 8.5647C9.12436 8.5647 8.66618 9.32465 8.66618 10.5187V14.0819H6.33309V6.72658ZM2.33309 13.9863H4.66618V6.63027H2.33309V13.9856V13.9863ZM5 4.23108C5.0044 4.42276 4.96885 4.61335 4.89545 4.79167C4.82204 4.96999 4.71226 5.13244 4.57253 5.2695C4.43281 5.40655 4.26596 5.51545 4.08179 5.58979C3.89761 5.66413 3.69981 5.70243 3.5 5.70243C3.30019 5.70243 3.10239 5.66413 2.91822 5.58979C2.73404 5.51545 2.56719 5.40655 2.42747 5.2695C2.28774 5.13244 2.17796 4.96999 2.10455 4.79167C2.03115 4.61335 1.9956 4.42276 2 4.23108C2.00863 3.85484 2.17046 3.4968 2.45083 3.23364C2.73119 2.97048 3.1078 2.82312 3.5 2.82312C3.8922 2.82312 4.26881 2.97048 4.54917 3.23364C4.82954 3.4968 4.99137 3.85484 5 4.23108V4.23108Z" fill="#F2F2F2"/>
</g>
<defs>
<clipPath id="clip0">
<rect width="16" height="15.3526" fill="white" transform="translate(0 0.873047)"/>
</clipPath>
</defs>
</svg>
