<svg width="18" height="18" viewBox="0 0 18 18" fill="none" xmlns="http://www.w3.org/2000/svg">
<g clip-path="url(#clip0)">
<path d="M17 2.99994C17 4.10454 16.1046 5 15 5C13.8954 5 13 4.10454 13 2.99994C13 1.89546 13.8954 1 15 1C16.1046 1 17 1.89546 17 2.99994Z" fill="#B0B4D2"/>
<path d="M15 6.00005C13.3454 6.00005 12 4.6545 12 2.99995C12 1.34555 13.3454 0 15 0C16.6545 0 17.9999 1.34555 17.9999 2.99995C17.9999 4.6545 16.6545 6.00005 15 6.00005ZM15 1.125C13.9657 1.125 13.125 1.96655 13.125 2.99995C13.125 4.03349 13.9657 4.87505 15 4.87505C16.0342 4.87505 16.8749 4.03349 16.8749 2.99995C16.8749 1.96655 16.0342 1.125 15 1.125Z" fill="#B0B4D2"/>
<path d="M17 15.0001C17 16.1045 16.1046 17 15 17C13.8954 17 13 16.1045 13 15.0001C13 13.8955 13.8954 13 15 13C16.1046 13 17 13.8955 17 15.0001Z" fill="#B0B4D2"/>
<path d="M15 18C13.3454 18 12 16.6545 12 15.0001C12 13.3456 13.3454 12 15 12C16.6545 12 17.9999 13.3456 17.9999 15.0001C17.9999 16.6545 16.6545 18 15 18ZM15 13.125C13.9657 13.125 13.125 13.9666 13.125 15.0001C13.125 16.0335 13.9657 16.875 15 16.875C16.0342 16.875 16.8749 16.0335 16.8749 15.0001C16.8749 13.9666 16.0342 13.125 15 13.125Z" fill="#B0B4D2"/>
<path d="M5 9C5 10.1046 4.10454 11 2.99994 11C1.89546 11 1 10.1046 1 9C1 7.89537 1.89546 7 2.99994 7C4.10454 7 5 7.89537 5 9Z" fill="#B0B4D2"/>
<path d="M2.99995 12C1.34555 12 0 10.6546 0 9.00001C0 7.34547 1.34555 6.00006 2.99995 6.00006C4.6545 6.00006 6.00005 7.34547 6.00005 9.00001C6.00005 10.6546 4.6545 12 2.99995 12ZM2.99995 7.12506C1.96573 7.12506 1.125 7.96648 1.125 9.00001C1.125 10.0336 1.96573 10.875 2.99995 10.875C4.03432 10.875 4.87505 10.0336 4.87505 9.00001C4.87505 7.96648 4.03432 7.12506 2.99995 7.12506Z" fill="#B0B4D2"/>
<path d="M4.8875 9C4.57888 9 4.2792 8.85098 4.11604 8.58443C3.87399 8.19026 4.02302 7.68745 4.44771 7.46188L12.6745 3.1088C13.0992 2.88248 13.6409 3.0208 13.884 3.41648C14.126 3.81066 13.977 4.31347 13.5523 4.53903L5.32534 8.89211C5.18702 8.96534 5.03637 9 4.8875 9Z" fill="#B0B4D2"/>
<path d="M13.1126 15C12.9636 15 12.8129 14.9653 12.6746 14.8921L4.44759 10.5389C4.0229 10.3142 3.87402 9.81142 4.11608 9.41633C4.35716 9.02139 4.89972 8.88232 5.32539 9.10864L13.5524 13.4618C13.9771 13.6865 14.126 14.1893 13.8839 14.5844C13.7199 14.851 13.4203 15 13.1126 15Z" fill="#B0B4D2"/>
</g>
<defs>
<clipPath id="clip0">
<rect width="18" height="18" fill="white"/>
</clipPath>
</defs>
</svg>
