<svg width="16" height="17" viewBox="0 0 16 17" fill="none" xmlns="http://www.w3.org/2000/svg">
<g clip-path="url(#clip0)">
<path d="M14.2857 0.873047H1.71429C0.767857 0.873047 0 1.60983 0 2.51797V14.5807C0 15.4889 0.767857 16.2256 1.71429 16.2256H14.2857C15.2321 16.2256 16 15.4889 16 14.5807V2.51797C16 1.60983 15.2321 0.873047 14.2857 0.873047ZM12.5393 6.315C12.5464 6.41095 12.5464 6.51033 12.5464 6.60628C12.5464 9.57742 10.1893 13.0009 5.88214 13.0009C4.55357 13.0009 3.32143 12.6308 2.28571 11.9934C2.475 12.014 2.65714 12.0208 2.85 12.0208C3.94643 12.0208 4.95357 11.6644 5.75714 11.0613C4.72857 11.0407 3.86429 10.393 3.56786 9.50203C3.92857 9.55343 4.25357 9.55344 4.625 9.46091C3.55357 9.25187 2.75 8.34716 2.75 7.25397V7.22656C3.06071 7.39448 3.425 7.49728 3.80714 7.51099C3.48587 7.30594 3.22249 7.02775 3.04053 6.70126C2.85856 6.37477 2.76365 6.01014 2.76429 5.63989C2.76429 5.22181 2.87857 4.83799 3.08214 4.50558C4.23571 5.8695 5.96786 6.7605 7.91071 6.85645C7.57857 5.33147 8.76786 4.09435 10.1964 4.09435C10.8714 4.09435 11.4786 4.36508 11.9071 4.80372C12.4357 4.70777 12.9429 4.51929 13.3929 4.26227C13.2179 4.78316 12.85 5.22181 12.3643 5.49939C12.8357 5.45141 13.2929 5.32462 13.7143 5.14984C13.3964 5.59877 12.9964 5.99629 12.5393 6.315Z" fill="#F2F2F2"/>
</g>
<defs>
<clipPath id="clip0">
<rect width="16" height="15.3526" fill="white" transform="translate(0 0.873047)"/>
</clipPath>
</defs>
</svg>
