<svg width="16" height="16" viewBox="0 0 16 16" fill="none" xmlns="http://www.w3.org/2000/svg">
<path d="M14.5 0L-3.25441e-05 1.5C-3.25441e-05 0.675 -0.825033 1.5 -3.25441e-05 1.5V14.5C-3.25441e-05 15.325 0.674967 16 1.49997 16H14.5C15.325 16 16 15.325 16 14.5V1.5C16 0.675 15.325 0 14.5 0ZM11 2.5C11 2.225 11.225 2 11.5 2H13.5C13.775 2 14 2.225 14 2.5V4.5C14 4.775 13.775 5 13.5 5H11.5C11.3674 4.99974 11.2404 4.94697 11.1467 4.85326C11.053 4.75955 11.0002 4.63253 11 4.5V2.5ZM7.99997 5C8.78221 5.0202 9.52562 5.34513 10.0717 5.90554C10.6179 6.46595 10.9235 7.2175 10.9235 8C10.9235 8.7825 10.6179 9.53405 10.0717 10.0945C9.52562 10.6549 8.78221 10.9798 7.99997 11C7.21773 10.9798 6.47431 10.6549 5.92819 10.0945C5.38207 9.53405 5.07643 8.7825 5.07643 8C5.07643 7.2175 5.38207 6.46595 5.92819 5.90554C6.47431 5.34513 7.21773 5.0202 7.99997 5ZM14 13.5C14 13.775 13.775 14 13.5 14H2.49997C2.36744 13.9997 2.24042 13.947 2.14671 13.8533C2.05299 13.7596 2.00023 13.6325 1.99997 13.5V7H3.09997C2.95147 7.72656 2.96649 8.47705 3.14392 9.19709C3.32136 9.91713 3.65676 10.5887 4.12584 11.163C4.59491 11.7374 5.18589 12.2002 5.85596 12.518C6.52603 12.8357 7.25839 13.0003 7.99997 13C8.74154 13.0003 9.47391 12.8357 10.144 12.518C10.814 12.2002 11.405 11.7374 11.8741 11.163C12.3432 10.5887 12.6786 9.91713 12.856 9.19709C13.0334 8.47705 13.0485 7.72656 12.9 7H14V13.5Z" fill="#F2F2F2"/>
</svg>
