<svg xmlns="http://www.w3.org/2000/svg" viewBox="0 0 575.4 574.5"><path class="st0" d="M435.4 465.9c-65.6 7.2-139.5 6.7-192.4-38.7-25.4-21.8-44.3-51.1-53.3-83.5-7.6-27.5-5.3-57.1 6.3-83.2 23.6-53 84.8-89.5 141.6-65.4 26.1 11.1 46.7 32.9 53.8 60.6 6.2 23.9 3.5 50.7-8 72.5-11.7 22.2-33.9 39.3-59.9 38.2-13.8-.5-27.8-6.1-37.3-16.3-10.4-11.2-12.2-26.4-7.6-40.6 2.2-6.9 6-13.2 11.3-18.2 4.6-4.5-2.4-11.5-7.1-7.1-11.6 11.2-17.8 28.2-16.5 44.2 1.3 15.9 10.6 29.4 23.9 37.9 25.7 16.4 58.7 11.7 81.5-7.4 43.4-36.5 43.1-111.4 3.7-150.3-23.4-23.1-57.6-34.9-90.3-30.2-30.9 4.4-59.6 22.5-79 46.7-19.3 24.1-30.7 54.4-30.9 85.3-.3 34.7 14.2 69.1 35 96.4 22.4 29.4 53 50.7 88.4 61.7 35.4 11 73.3 12.2 110 9.8 8.9-.6 17.9-1.4 26.8-2.4 6.3-.7 6.4-10.7 0-10z" fill="#5D8EFF"/><path d="M140.2 107.8c65.6-7.2 139.5-6.7 192.4 38.7 25.4 21.8 44.3 51.1 53.3 83.5 7.6 27.5 5.3 57.1-6.3 83.2-23.6 53-84.8 89.5-141.6 65.4-26.1-11.1-46.7-32.9-53.8-60.6-6.2-23.9-3.5-50.7 8-72.5 11.7-22.2 33.9-39.3 59.9-38.2 13.8.5 27.8 6.1 37.3 16.3 10.4 11.2 12.2 26.4 7.6 40.6-2.2 6.9-6 13.2-11.3 18.2-4.6 4.5 2.4 11.5 7.1 7.1 11.6-11.2 17.8-28.2 16.5-44.2-1.3-15.9-10.6-29.4-23.9-37.9-25.7-16.4-58.7-11.7-81.5 7.4-43.4 36.5-43.1 111.4-3.7 150.3 23.4 23.1 57.6 34.9 90.3 30.2 30.9-4.4 59.6-22.5 79-46.7 19.3-24.1 30.7-54.4 30.9-85.3.3-34.7-14.2-69.1-35-96.4-22.4-29.4-53-50.7-88.4-61.7-35.4-11-73.3-12.2-110-9.8-8.9.6-17.9 1.4-26.8 2.4-6.3.7-6.4 10.7 0 10z" fill="#00E482"/></svg>