<svg width="116" height="26" viewBox="0 0 116 26" fill="none" xmlns="http://www.w3.org/2000/svg">
<path fill-rule="evenodd" clip-rule="evenodd" d="M108.932 6.51172C112.655 6.51172 115.674 9.53047 115.674 13.2543C115.674 16.9781 112.655 19.9969 108.932 19.9969C105.208 19.9969 102.189 16.9781 102.189 13.2543C102.189 9.53047 105.208 6.51172 108.932 6.51172ZM108.932 9.13236C106.655 9.13236 104.809 10.9781 104.809 13.255C104.809 15.5318 106.655 17.3776 108.932 17.3776C111.208 17.3776 113.054 15.5318 113.054 13.255C113.054 10.9781 111.208 9.13236 108.932 9.13236Z" fill="url(#paint0_linear)"/>
<path fill-rule="evenodd" clip-rule="evenodd" d="M97.7967 6.62695C98.5202 6.62695 99.1067 7.21345 99.1067 7.93694V18.5714C99.1067 19.2949 98.5202 19.8814 97.7967 19.8814C97.0732 19.8814 96.4867 19.2949 96.4867 18.5714V7.93694C96.4867 7.21345 97.0732 6.62695 97.7967 6.62695Z" fill="url(#paint1_linear)"/>
<path fill-rule="evenodd" clip-rule="evenodd" d="M92.0945 0C92.8179 0 93.4044 0.586501 93.4044 1.30999V13.2544C93.4044 16.9782 90.3857 19.997 86.6619 19.997C82.9381 19.997 79.9193 16.9782 79.9193 13.2544C79.9193 9.53058 82.9381 6.51183 86.6619 6.51183C88.2146 6.51183 89.6448 7.0367 90.7846 7.91871L90.7845 1.30999C90.7845 0.586501 91.371 0 92.0945 0ZM86.6618 9.13161C84.385 9.13161 82.5392 10.9774 82.5392 13.2542C82.5392 15.5311 84.385 17.3768 86.6618 17.3768C88.9387 17.3768 90.7844 15.5311 90.7844 13.2542C90.7844 10.9774 88.9387 9.13161 86.6618 9.13161Z" fill="url(#paint2_linear)"/>
<path fill-rule="evenodd" clip-rule="evenodd" d="M70.0946 19.9969C66.3708 19.9969 63.352 16.9781 63.352 13.2543C63.352 9.56771 66.3107 6.57216 69.9831 6.51262L70.0946 6.51172C73.8184 6.51172 76.8372 9.53047 76.8372 13.2543V18.4557C76.8372 19.3069 76.1472 19.9969 75.296 19.9969H70.0946ZM70.0945 9.13236C67.8177 9.13236 65.9719 10.9781 65.9719 13.255C65.9719 15.5318 67.8177 17.3776 70.0945 17.3776C72.3486 17.3776 74.1802 15.5685 74.2166 13.3231L74.2171 13.255C74.2171 10.9781 72.3714 9.13236 70.0945 9.13236Z" fill="url(#paint3_linear)"/>
<path fill-rule="evenodd" clip-rule="evenodd" d="M49.0137 10.1984L51.8416 16.5457C52.2417 17.4437 53.294 17.8473 54.192 17.4472C54.5935 17.2683 54.9147 16.9472 55.0936 16.5457L59.2063 7.31505C59.4175 6.841 59.8804 6.5308 60.3965 6.51346L60.4421 6.5127C61.1606 6.5127 61.743 7.0951 61.743 7.81354C61.743 7.99588 61.7046 8.17618 61.6305 8.34275L57.6496 17.2818C56.622 19.5892 53.9186 20.6267 51.6112 19.5991C50.579 19.1394 49.7536 18.314 49.2939 17.2818L48.0787 14.553C47.9055 14.1642 47.45 13.9894 47.0613 14.1626C46.8874 14.24 46.7483 14.3791 46.6709 14.5529L45.4529 17.2869C44.425 19.594 41.7213 20.6311 39.4141 19.6031C38.3826 19.1435 37.5575 18.3185 37.0979 17.2869L33.1129 8.34278C32.8206 7.68659 33.1155 6.91765 33.7717 6.62529C33.9216 6.55848 34.0827 6.52073 34.2464 6.51384L34.301 6.5127C34.8351 6.5127 35.3192 6.82697 35.5366 7.31483L39.6495 16.5458C40.0496 17.4438 41.1019 17.8474 41.9999 17.4473C42.4014 17.2684 42.7225 16.9473 42.9014 16.5458L45.7294 10.1984C46.1335 9.29148 47.1963 8.88384 48.1032 9.28792C48.5088 9.4686 48.8331 9.79292 49.0137 10.1984Z" fill="url(#paint4_linear)"/>
<path fill-rule="evenodd" clip-rule="evenodd" d="M11.5 0C17.8513 0 23 5.14873 23 11.5C23 17.2303 18.8088 21.9817 13.3247 22.856L13.1581 22.8813C12.7883 22.9348 12.4451 22.6782 12.3917 22.3083C12.3871 22.2763 12.3847 22.244 12.3847 22.2116L12.3847 19.2234C12.3847 18.7377 12.6739 18.3004 13.1171 18.1089L13.1604 18.0912C14.8596 17.4333 16.0705 15.7951 16.0995 13.8705L16.1 13.8V8.13846C16.1 6.20458 14.5486 4.63304 12.6225 4.60051L12.5615 4.6H10.4385C8.50458 4.6 6.93304 6.15139 6.90051 8.07751L6.9 8.13846V13.8C6.9 15.7728 8.14195 17.4556 9.88666 18.1091L9.95151 18.1329C10.3497 18.2752 10.6154 18.6524 10.6154 19.0753L10.6152 24.7835C10.6153 25.2569 10.2315 25.6406 9.75813 25.6406C9.55165 25.6406 9.35263 25.5661 9.19723 25.4317L9.16462 25.4019L3.37971 19.6433C1.29192 17.5612 0 14.6815 0 11.5C0 5.14873 5.14873 0 11.5 0Z" fill="url(#paint5_linear)"/>
<path fill-rule="evenodd" clip-rule="evenodd" d="M11.8537 17.339H11.1462C9.63466 17.339 8.36906 16.2859 8.0431 14.8734C7.95473 14.4904 8.29276 14.1544 8.68577 14.1544H9.50969C9.82725 14.1544 10.0847 13.897 10.0847 13.5794C10.0847 13.2728 9.8447 13.0222 9.54231 13.0053L9.50969 13.0044H8.42603C8.16954 13.0044 7.96161 12.7965 7.96161 12.54C7.96161 12.2835 8.16954 12.0756 8.42603 12.0756H9.50969C9.82725 12.0756 10.0847 11.8181 10.0847 11.5006C10.0847 11.194 9.8447 10.9434 9.54231 10.9265L9.50969 10.9256H8.42603C8.16954 10.9256 7.96161 10.7176 7.96161 10.4611C7.96161 10.2047 8.16954 9.99672 8.42603 9.99672H9.50969C9.82725 9.99672 10.0847 9.73929 10.0847 9.42173C10.0847 9.11511 9.8447 8.86455 9.54231 8.84764L9.50969 8.84672H8.6693C8.27845 8.84672 7.96161 8.52988 7.96161 8.13903C7.96161 6.77107 9.07056 5.66211 10.4385 5.66211H12.5614C13.9293 5.66211 15.0383 6.77107 15.0383 8.13903C15.0382 8.5299 14.7213 8.84672 14.3305 8.84672H13.4905C13.1838 8.84672 12.9333 9.08671 12.9164 9.3891L12.9155 9.42173C12.9155 9.72834 13.1554 9.9789 13.4578 9.99581L13.4905 9.99672H14.5738C14.8302 9.99672 15.0382 10.2047 15.0382 10.4611C15.0382 10.7176 14.8302 10.9256 14.5738 10.9256H13.4905C13.1838 10.9256 12.9333 11.1656 12.9164 11.4679L12.9155 11.5006C12.9155 11.8072 13.1554 12.0577 13.4578 12.0747L13.4905 12.0756H14.5738C14.8302 12.0756 15.0382 12.2835 15.0382 12.54C15.0382 12.7965 14.8302 13.0044 14.5738 13.0044H13.4905C13.1838 13.0044 12.9333 13.2444 12.9164 13.5468L12.9155 13.5794C12.9155 13.886 13.1554 14.1366 13.4578 14.1535L13.4905 14.1544H14.3159C14.708 14.1544 15.0451 14.4896 14.9572 14.8716C14.6319 16.285 13.3659 17.339 11.8537 17.339Z" fill="url(#paint6_linear)"/>
<defs>
<linearGradient id="paint0_linear" x1="96.3423" y1="7.31767" x2="104.749" y2="27.8269" gradientUnits="userSpaceOnUse">
<stop stop-color="#5D8EFF"/>
<stop offset="1" stop-color="#00E482"/>
</linearGradient>
<linearGradient id="paint1_linear" x1="95.3508" y1="7.41911" x2="104.563" y2="11.8612" gradientUnits="userSpaceOnUse">
<stop stop-color="#5D8EFF"/>
<stop offset="1" stop-color="#00E482"/>
</linearGradient>
<linearGradient id="paint2_linear" x1="74.0726" y1="1.19513" x2="89.8399" y2="27.1341" gradientUnits="userSpaceOnUse">
<stop stop-color="#5D8EFF"/>
<stop offset="1" stop-color="#00E482"/>
</linearGradient>
<linearGradient id="paint3_linear" x1="57.5053" y1="7.31767" x2="65.9124" y2="27.8269" gradientUnits="userSpaceOnUse">
<stop stop-color="#5D8EFF"/>
<stop offset="1" stop-color="#00E482"/>
</linearGradient>
<linearGradient id="paint4_linear" x1="20.538" y1="7.31878" x2="24.9822" y2="30.4235" gradientUnits="userSpaceOnUse">
<stop stop-color="#5D8EFF"/>
<stop offset="1" stop-color="#00E482"/>
</linearGradient>
<linearGradient id="paint5_linear" x1="-4.2119" y1="17.5137" x2="16.7329" y2="28.3608" gradientUnits="userSpaceOnUse">
<stop stop-color="#7D8EFF"/>
<stop offset="1" stop-color="#2DFF80"/>
</linearGradient>
<linearGradient id="paint6_linear" x1="18.5766" y1="11.5006" x2="8.22518" y2="5.2272" gradientUnits="userSpaceOnUse">
<stop stop-color="#B7B7B7"/>
<stop offset="0.333769" stop-color="white"/>
<stop offset="0.497212" stop-color="white"/>
<stop offset="0.681681" stop-color="white"/>
<stop offset="1" stop-color="#B7B7B7"/>
</linearGradient>
</defs>
</svg>
